<?xml version="1.0" encoding="UTF-8" standalone="no"?>
<svg
   xmlns:ns14="http://www.iki.fi/pav/software/textext/"
   xmlns:dc="http://purl.org/dc/elements/1.1/"
   xmlns:cc="http://creativecommons.org/ns#"
   xmlns:rdf="http://www.w3.org/1999/02/22-rdf-syntax-ns#"
   xmlns:svg="http://www.w3.org/2000/svg"
   xmlns="http://www.w3.org/2000/svg"
   xmlns:sodipodi="http://sodipodi.sourceforge.net/DTD/sodipodi-0.dtd"
   xmlns:inkscape="http://www.inkscape.org/namespaces/inkscape"
   sodipodi:docname="Query_Processing.svg"
   inkscape:version="1.0 (4035a4fb49, 2020-05-01)"
   width="210mm"
   height="297mm"
   viewBox="0 0 210 297"
   version="1.1"
   id="svg8">
  <defs
     id="defs2">
    <marker
       inkscape:isstock="true"
       style="overflow:visible"
       id="Arrow1Mstart"
       refX="0.0"
       refY="0.0"
       orient="auto"
       inkscape:stockid="Arrow1Mstart">
      <path
         transform="scale(0.4) translate(10,0)"
         style="fill-rule:evenodd;stroke:#008000;stroke-width:1pt;stroke-opacity:1;fill:#008000;fill-opacity:1"
         d="M 0.0,0.0 L 5.0,-5.0 L -12.5,0.0 L 5.0,5.0 L 0.0,0.0 z "
         id="path2469" />
    </marker>
    <marker
       inkscape:isstock="true"
       style="overflow:visible"
       id="Arrow2Mstart"
       refX="0.0"
       refY="0.0"
       orient="auto"
       inkscape:stockid="Arrow2Mstart">
      <path
         transform="scale(0.6) translate(0,0)"
         d="M 8.7185878,4.0337352 L -2.2072895,0.016013256 L 8.7185884,-4.0017078 C 6.9730900,-1.6296469 6.9831476,1.6157441 8.7185878,4.0337352 z "
         style="fill-rule:evenodd;stroke-width:0.625;stroke-linejoin:round;stroke:#008000;stroke-opacity:1;fill:#008000;fill-opacity:1"
         id="path2487" />
    </marker>
    <marker
       inkscape:isstock="true"
       style="overflow:visible"
       id="Arrow1Sstart"
       refX="0.0"
       refY="0.0"
       orient="auto"
       inkscape:stockid="Arrow1Sstart">
      <path
         transform="scale(0.2) translate(6,0)"
         style="fill-rule:evenodd;stroke:#008000;stroke-width:1pt;stroke-opacity:1;fill:#008000;fill-opacity:1"
         d="M 0.0,0.0 L 5.0,-5.0 L -12.5,0.0 L 5.0,5.0 L 0.0,0.0 z "
         id="path2475" />
    </marker>
    <marker
       inkscape:isstock="true"
       style="overflow:visible"
       id="Arrow1Lstart"
       refX="0.0"
       refY="0.0"
       orient="auto"
       inkscape:stockid="Arrow1Lstart">
      <path
         transform="scale(0.8) translate(12.5,0)"
         style="fill-rule:evenodd;stroke:#008000;stroke-width:1pt;stroke-opacity:1;fill:#008000;fill-opacity:1"
         d="M 0.0,0.0 L 5.0,-5.0 L -12.5,0.0 L 5.0,5.0 L 0.0,0.0 z "
         id="path2463" />
    </marker>
    <marker
       inkscape:isstock="true"
       style="overflow:visible"
       id="marker3066"
       refX="0"
       refY="0"
       orient="auto"
       inkscape:stockid="Arrow1Mend">
      <path
         transform="matrix(-0.4,0,0,-0.4,-4,0)"
         style="fill:#008000;fill-opacity:1;fill-rule:evenodd;stroke:#008000;stroke-width:1pt;stroke-opacity:1"
         d="M 0,0 5,-5 -12.5,0 5,5 Z"
         id="path3064" />
    </marker>
    <marker
       inkscape:isstock="true"
       style="overflow:visible"
       id="marker3026"
       refX="0"
       refY="0"
       orient="auto"
       inkscape:stockid="Arrow1Mend">
      <path
         transform="matrix(-0.4,0,0,-0.4,-4,0)"
         style="fill:#008000;fill-opacity:1;fill-rule:evenodd;stroke:#008000;stroke-width:1pt;stroke-opacity:1"
         d="M 0,0 5,-5 -12.5,0 5,5 Z"
         id="path3024" />
    </marker>
    <marker
       inkscape:stockid="Arrow1Mend"
       orient="auto"
       refY="0.0"
       refX="0.0"
       id="marker2992"
       style="overflow:visible;"
       inkscape:isstock="true">
      <path
         id="path2990"
         d="M 0.0,0.0 L 5.0,-5.0 L -12.5,0.0 L 5.0,5.0 L 0.0,0.0 z "
         style="fill-rule:evenodd;stroke:#008000;stroke-width:1pt;stroke-opacity:1;fill:#008000;fill-opacity:1"
         transform="scale(0.4) rotate(180) translate(10,0)" />
    </marker>
    <marker
       inkscape:collect="always"
       inkscape:isstock="true"
       style="overflow:visible;"
       id="Arrow1Mend"
       refX="0.0"
       refY="0.0"
       orient="auto"
       inkscape:stockid="Arrow1Mend">
      <path
         transform="scale(0.4) rotate(180) translate(10,0)"
         style="fill-rule:evenodd;stroke:#000080;stroke-width:1pt;stroke-opacity:1;fill:#000080;fill-opacity:1"
         d="M 0.0,0.0 L 5.0,-5.0 L -12.5,0.0 L 5.0,5.0 L 0.0,0.0 z "
         id="path2472" />
    </marker>
    <defs
       id="id-bafa233b-3242-4189-a57b-e22a7344bba7">
      <g
         id="id-8a367437-195f-4292-a354-697926b5e681">
        <symbol
           overflow="visible"
           id="id-62cac437-e35a-4487-a80b-6204aa2d2c2c">
          <path
             style="stroke:none"
             d=""
             id="id-cdb067d1-0b71-45b6-9996-dca2918a48c4" />
        </symbol>
        <symbol
           overflow="visible"
           id="id-4edc10ad-071d-42d4-8ae7-d7b517f76603">
          <path
             style="stroke:none"
             d="m 6.46875,0 c 0,-0.0625 -0.0625,-0.09375 -0.109375,-0.09375 -0.078125,0 -0.09375,0.046875 -0.125,0.109375 C 6,0.71875 5.421875,0.96875 5.078125,0.96875 4.609375,0.96875 4.46875,0.703125 4.359375,-0.0625 5.90625,-0.640625 7.375,-2.421875 7.375,-4.34375 c 0,-1.609375 -1.0625,-2.6875 -2.546875,-2.6875 -2.140625,0 -4.34375,2.265625 -4.34375,4.59375 0,1.65625 1.125,2.65625 2.5625,2.65625 0.25,0 0.578125,-0.046875 0.96875,-0.15625 -0.03125,0.625 -0.03125,0.640625 -0.03125,0.78125 0,0.3125 0,1.09375 0.828125,1.09375 C 5.984375,1.9375 6.46875,0.109375 6.46875,0 Z M 6.5,-4.671875 c 0,1 -0.515625,3.34375 -2.1875,4.265625 -0.046875,-0.34375 -0.140625,-1.0625 -0.875,-1.0625 -0.53125,0 -1.015625,0.484375 -1.015625,1.015625 0,0.1875 0.0625,0.3125 0.0625,0.3125 -0.78125,-0.3125 -1.125,-1.078125 -1.125,-1.984375 0,-0.6875 0.265625,-2.109375 1.015625,-3.171875 C 3.109375,-6.3125 4.046875,-6.78125 4.78125,-6.78125 5.765625,-6.78125 6.5,-6 6.5,-4.671875 Z M 4.046875,-0.40625 c 0,0.140625 -0.015625,0.15625 -0.109375,0.203125 -0.265625,0.109375 -0.5625,0.171875 -0.84375,0.171875 -0.140625,0 -0.453125,0 -0.453125,-0.421875 0,-0.40625 0.375,-0.796875 0.796875,-0.796875 0.421875,0 0.609375,0.234375 0.609375,0.84375 z m 0,0"
             id="id-301d108a-e874-4dff-aec6-cb7dedb9542c" />
        </symbol>
        <symbol
           overflow="visible"
           id="id-1c50033a-d0ab-4337-830d-a5b3299abea3">
          <path
             style="stroke:none"
             d="m 6.4375,-5.515625 c 0,0.34375 -0.15625,1.03125 -0.546875,1.421875 -0.265625,0.25 -0.78125,0.578125 -1.6875,0.578125 H 3.09375 L 3.734375,-6.125 c 0.0625,-0.234375 0.09375,-0.328125 0.28125,-0.359375 C 4.109375,-6.5 4.421875,-6.5 4.625,-6.5 c 0.703125,0 1.8125,0 1.8125,0.984375 z m 1.09375,4.59375 c 0,-0.125 -0.125,-0.125 -0.125,-0.125 -0.09375,0 -0.109375,0.0625 -0.125,0.140625 C 7.03125,-0.171875 6.59375,0 6.375,0 6.046875,0 5.96875,-0.21875 5.96875,-0.609375 c 0,-0.3125 0.0625,-0.8125 0.109375,-1.140625 0.015625,-0.140625 0.03125,-0.328125 0.03125,-0.46875 0,-0.765625 -0.671875,-1.078125 -0.9375,-1.171875 1.015625,-0.21875 2.1875,-0.921875 2.1875,-1.921875 0,-0.859375 -0.890625,-1.5 -2.203125,-1.5 H 2.328125 c -0.203125,0 -0.296875,0 -0.296875,0.203125 C 2.03125,-6.5 2.125,-6.5 2.3125,-6.5 c 0,0 0.203125,0 0.375,0.015625 0.1875,0.03125 0.265625,0.03125 0.265625,0.171875 0,0.03125 0,0.0625 -0.03125,0.1875 l -1.34375,5.34375 C 1.484375,-0.390625 1.46875,-0.3125 0.671875,-0.3125 0.5,-0.3125 0.40625,-0.3125 0.40625,-0.109375 0.40625,0 0.546875,0 0.546875,0 l 1.25,-0.03125 L 3.078125,0 c 0.078125,0 0.1875,0 0.1875,-0.203125 0,-0.109375 -0.078125,-0.109375 -0.28125,-0.109375 -0.359375,0 -0.640625,0 -0.640625,-0.171875 0,-0.0625 0.015625,-0.109375 0.03125,-0.171875 l 0.65625,-2.640625 h 1.1875 c 0.90625,0 1.078125,0.5625 1.078125,0.90625 0,0.140625 -0.078125,0.453125 -0.140625,0.6875 C 5.09375,-1.421875 5,-1.0625 5,-0.859375 5,0.21875 6.203125,0.21875 6.328125,0.21875 c 0.84375,0 1.203125,-1 1.203125,-1.140625 z m 0,0"
             id="id-709a6d2b-5ac8-4f59-b858-0304c34b0689" />
        </symbol>
        <symbol
           overflow="visible"
           id="id-ad886b65-15d1-4510-81fe-a7dbc864b47f">
          <path
             style="stroke:none"
             d="m 2.03125,-0.015625 c 0,-0.65625 -0.25,-1.046875 -0.640625,-1.046875 -0.328125,0 -0.53125,0.25 -0.53125,0.53125 C 0.859375,-0.265625 1.0625,0 1.390625,0 1.5,0 1.640625,-0.046875 1.734375,-0.125 1.765625,-0.15625 1.78125,-0.15625 1.78125,-0.15625 c 0,0 0.015625,0 0.015625,0.140625 0,0.75 -0.34375,1.34375 -0.671875,1.671875 -0.109375,0.109375 -0.109375,0.125 -0.109375,0.15625 0,0.078125 0.046875,0.109375 0.09375,0.109375 0.109375,0 0.921875,-0.765625 0.921875,-1.9375 z m 0,0"
             id="id-efbf8c79-ce4c-451d-bdd5-3e357d9c8606" />
        </symbol>
        <symbol
           overflow="visible"
           id="id-2609cb1f-e5f3-4509-9d19-39cfb314e3f3">
          <path
             style="stroke:none"
             d="m 3.125,-1.421875 c 0,-0.109375 -0.078125,-0.109375 -0.109375,-0.109375 -0.09375,0 -0.109375,0.03125 -0.15625,0.140625 -0.421875,1.046875 -0.953125,1.28125 -1.296875,1.28125 -0.203125,0 -0.3125,-0.125 -0.3125,-0.453125 0,-0.25 0.03125,-0.3125 0.0625,-0.484375 l 0.734375,-2.9375 h 0.9375 c 0.203125,0 0.3125,0 0.3125,-0.203125 0,-0.109375 -0.109375,-0.109375 -0.28125,-0.109375 h -0.875 C 2.5,-5.71875 2.546875,-5.90625 2.546875,-5.96875 c 0,-0.171875 -0.125,-0.265625 -0.296875,-0.265625 -0.03125,0 -0.3125,0 -0.390625,0.359375 L 1.46875,-4.296875 h -0.9375 c -0.203125,0 -0.296875,0 -0.296875,0.1875 0,0.125 0.078125,0.125 0.28125,0.125 h 0.875 C 0.671875,-1.15625 0.625,-0.984375 0.625,-0.8125 0.625,-0.265625 1,0.109375 1.546875,0.109375 2.5625,0.109375 3.125,-1.34375 3.125,-1.421875 Z m 0,0"
             id="id-277d3e26-40ac-4fba-9f89-2b2c9191fb0d" />
        </symbol>
        <symbol
           overflow="visible"
           id="id-9aee353d-de30-40e1-a599-df2b9c3e0e1c">
          <path
             style="stroke:none"
             d=""
             id="id-16cf49c3-405f-4483-87c0-db658a86986c" />
        </symbol>
        <symbol
           overflow="visible"
           id="id-115a1f27-7dd3-4b0c-a603-9d69b2420449">
          <path
             style="stroke:none"
             d="m 6.84375,-3.265625 c 0.15625,0 0.34375,0 0.34375,-0.1875 C 7.1875,-3.65625 7,-3.65625 6.859375,-3.65625 h -5.96875 c -0.140625,0 -0.328125,0 -0.328125,0.203125 0,0.1875 0.1875,0.1875 0.328125,0.1875 z m 0.015625,1.9375 c 0.140625,0 0.328125,0 0.328125,-0.203125 0,-0.1875 -0.1875,-0.1875 -0.34375,-0.1875 H 0.890625 c -0.140625,0 -0.328125,0 -0.328125,0.1875 0,0.203125 0.1875,0.203125 0.328125,0.203125 z m 0,0"
             id="id-88e23417-0770-47eb-b5be-1262bcaffa6d" />
        </symbol>
        <symbol
           overflow="visible"
           id="id-69868a30-ba99-40e2-b90c-992563175413">
          <path
             style="stroke:none"
             d=""
             id="id-7f92e072-bf0b-4c20-8ba2-240900d4bc10" />
        </symbol>
        <symbol
           overflow="visible"
           id="id-3e08fac2-01b4-4394-bb45-4364ee9ee4f6">
          <path
             style="stroke:none"
             d="m 3.3125,2.296875 c 0,0 0,-0.0625 -0.046875,-0.1875 L 1.5,-2.5 3.265625,-7.09375 c 0.046875,-0.125 0.046875,-0.1875 0.046875,-0.1875 0,-0.109375 -0.09375,-0.203125 -0.203125,-0.203125 -0.125,0 -0.171875,0.09375 -0.203125,0.203125 L 1.140625,-2.671875 C 1.09375,-2.546875 1.09375,-2.5 1.09375,-2.5 c 0,0 0,0.0625 0.046875,0.1875 l 1.75,4.578125 C 2.9375,2.390625 2.96875,2.5 3.109375,2.5 3.21875,2.5 3.3125,2.40625 3.3125,2.296875 Z m 0,0"
             id="id-347fef95-8427-45e9-9ed9-b9f51c3f9ad3" />
        </symbol>
        <symbol
           overflow="visible"
           id="id-fdc0357b-4d80-401c-b7f2-58bbc073e4f8">
          <path
             style="stroke:none"
             d="m 2.765625,-2.5 c 0,0 0,-0.046875 -0.046875,-0.171875 L 0.984375,-7.25 C 0.921875,-7.375 0.890625,-7.484375 0.75,-7.484375 c -0.109375,0 -0.1875,0.09375 -0.1875,0.203125 0,0 0,0.0625 0.046875,0.1875 l 1.75,4.59375 -1.75,4.609375 C 0.5625,2.234375 0.5625,2.296875 0.5625,2.296875 0.5625,2.40625 0.640625,2.5 0.75,2.5 0.890625,2.5 0.921875,2.40625 0.96875,2.296875 l 1.75,-4.609375 C 2.765625,-2.4375 2.765625,-2.5 2.765625,-2.5 Z m 0,0"
             id="id-6689c5d2-dc00-4fa8-b824-38c07d695932" />
        </symbol>
        <symbol
           overflow="visible"
           id="id-0d1427ec-562d-44ec-942e-4d5b47d6e6b8">
          <path
             style="stroke:none"
             d=""
             id="id-30ec12f7-99d6-437f-b472-cd924424404a" />
        </symbol>
        <symbol
           overflow="visible"
           id="id-21583d6a-c597-4637-846b-b2173bd94fd0">
          <path
             style="stroke:none"
             d="m 3.875,-1.90625 c 0,-0.8125 -0.5625,-1.171875 -1.03125,-1.171875 -0.4375,0 -0.8125,0.296875 -1,0.5 -0.109375,-0.40625 -0.5,-0.5 -0.71875,-0.5 -0.265625,0 -0.4375,0.1875 -0.546875,0.375 -0.140625,0.234375 -0.25,0.65625 -0.25,0.703125 0,0.078125 0.09375,0.078125 0.125,0.078125 0.09375,0 0.09375,-0.015625 0.140625,-0.203125 0.109375,-0.40625 0.25,-0.75 0.515625,-0.75 0.1875,0 0.234375,0.15625 0.234375,0.34375 0,0.078125 -0.015625,0.15625 -0.03125,0.203125 L 0.515625,0.84375 c -0.046875,0.203125 -0.0625,0.25 -0.328125,0.25 -0.09375,0 -0.1875,0 -0.1875,0.15625 0,0.078125 0.0625,0.109375 0.09375,0.109375 0.171875,0 0.40625,-0.03125 0.59375,-0.03125 0.234375,0 0.5,0.03125 0.734375,0.03125 0.0625,0 0.140625,-0.03125 0.140625,-0.15625 0,-0.109375 -0.09375,-0.109375 -0.1875,-0.109375 -0.15625,0 -0.34375,0 -0.34375,-0.078125 0,-0.03125 0.0625,-0.21875 0.078125,-0.3125 L 1.375,-0.34375 C 1.453125,-0.203125 1.671875,0.0625 2.09375,0.0625 2.9375,0.0625 3.875,-0.875 3.875,-1.90625 Z M 3.328125,-2.203125 c 0,0.28125 -0.15625,1 -0.359375,1.40625 -0.1875,0.34375 -0.515625,0.671875 -0.875,0.671875 -0.5,0 -0.625,-0.53125 -0.625,-0.609375 0,-0.03125 0.015625,-0.078125 0.015625,-0.109375 L 1.84375,-2.234375 C 2.25,-2.78125 2.59375,-2.875 2.8125,-2.875 c 0.28125,0 0.515625,0.203125 0.515625,0.671875 z m 0,0"
             id="id-6262dd4f-59e8-45cc-97c1-9c07de6bca68" />
        </symbol>
        <symbol
           overflow="visible"
           id="id-01e497d5-31e0-4e0b-91ca-708920ae87de">
          <path
             style="stroke:none"
             d="m 4.203125,-4.40625 c 0,-0.328125 -0.328125,-0.5 -0.6875,-0.5 -0.3125,0 -0.65625,0.171875 -0.84375,0.515625 C 2.53125,-4.125 2.484375,-3.8125 2.328125,-3 H 1.78125 c -0.140625,0 -0.234375,0 -0.234375,0.15625 0,0.09375 0.09375,0.09375 0.21875,0.09375 H 2.28125 L 1.671875,0.546875 C 1.640625,0.703125 1.515625,1.21875 1.1875,1.21875 c 0,0 -0.171875,0 -0.3125,-0.078125 0.28125,-0.09375 0.3125,-0.34375 0.3125,-0.375 C 1.1875,0.609375 1.0625,0.5 0.90625,0.5 c -0.1875,0 -0.390625,0.15625 -0.390625,0.421875 0,0.3125 0.328125,0.5 0.671875,0.5 0.4375,0 0.75,-0.453125 0.828125,-0.609375 0.25,-0.46875 0.421875,-1.328125 0.4375,-1.40625 L 2.84375,-2.75 H 3.515625 C 3.65625,-2.75 3.75,-2.75 3.75,-2.90625 3.75,-3 3.65625,-3 3.53125,-3 H 2.890625 c 0.15625,-0.890625 0.203125,-1.203125 0.265625,-1.40625 0.03125,-0.15625 0.1875,-0.296875 0.359375,-0.296875 0,0 0.1875,0 0.328125,0.078125 -0.296875,0.09375 -0.3125,0.34375 -0.3125,0.375 0,0.15625 0.125,0.265625 0.28125,0.265625 0.1875,0 0.390625,-0.15625 0.390625,-0.421875 z m 0,0"
             id="id-6325d1c4-8b1e-41ff-8246-e6332442dd7e" />
        </symbol>
        <symbol
           overflow="visible"
           id="id-611a487e-e869-4dbd-9adb-387a6377bd3e">
          <path
             style="stroke:none"
             d="m 6.71875,-1 c 0,-0.09375 -0.078125,-0.09375 -0.109375,-0.09375 -0.09375,0 -0.09375,0.046875 -0.125,0.125 C 6.328125,-0.40625 6.015625,-0.125 5.75,-0.125 c -0.15625,0 -0.1875,-0.09375 -0.1875,-0.25 0,-0.15625 0.046875,-0.25 0.171875,-0.5625 0.078125,-0.21875 0.359375,-0.953125 0.359375,-1.34375 0,-0.109375 0,-0.40625 -0.25,-0.609375 -0.125,-0.078125 -0.328125,-0.1875 -0.65625,-0.1875 -0.625,0 -1,0.421875 -1.234375,0.703125 C 3.90625,-2.96875 3.40625,-3.078125 3.046875,-3.078125 2.46875,-3.078125 2.078125,-2.71875 1.875,-2.4375 1.828125,-2.921875 1.421875,-3.078125 1.125,-3.078125 c -0.296875,0 -0.453125,0.21875 -0.546875,0.375 -0.15625,0.265625 -0.25,0.65625 -0.25,0.703125 0,0.078125 0.09375,0.078125 0.125,0.078125 0.09375,0 0.09375,-0.015625 0.140625,-0.203125 0.109375,-0.40625 0.25,-0.75 0.515625,-0.75 0.1875,0 0.234375,0.15625 0.234375,0.34375 0,0.125 -0.0625,0.390625 -0.125,0.578125 l -0.140625,0.625 L 0.84375,-0.4375 c -0.015625,0.09375 -0.0625,0.265625 -0.0625,0.28125 0,0.15625 0.125,0.21875 0.234375,0.21875 0.125,0 0.234375,-0.078125 0.28125,-0.140625 0.03125,-0.0625 0.078125,-0.296875 0.125,-0.4375 l 0.140625,-0.625 c 0.046875,-0.15625 0.09375,-0.3125 0.125,-0.46875 0.078125,-0.28125 0.09375,-0.34375 0.296875,-0.625 C 2.171875,-2.515625 2.5,-2.875 3.03125,-2.875 c 0.390625,0 0.40625,0.359375 0.40625,0.484375 0,0.171875 -0.015625,0.265625 -0.125,0.65625 L 3.03125,-0.5625 c -0.046875,0.140625 -0.109375,0.375 -0.109375,0.40625 0,0.15625 0.125,0.21875 0.234375,0.21875 0.140625,0 0.25,-0.078125 0.28125,-0.140625 0.03125,-0.0625 0.09375,-0.296875 0.125,-0.4375 l 0.15625,-0.625 C 3.75,-1.296875 3.796875,-1.453125 3.828125,-1.609375 3.90625,-1.90625 3.90625,-1.921875 4.046875,-2.140625 4.265625,-2.484375 4.625,-2.875 5.15625,-2.875 c 0.390625,0 0.421875,0.3125 0.421875,0.484375 0,0.421875 -0.296875,1.1875 -0.421875,1.484375 -0.0625,0.203125 -0.09375,0.265625 -0.09375,0.375 0,0.375 0.296875,0.59375 0.65625,0.59375 0.703125,0 1,-0.953125 1,-1.0625 z m 0,0"
             id="id-ff7e8389-f4c4-4aae-afea-eceaa2f631b9" />
        </symbol>
      </g>
    </defs>
    <marker
       inkscape:collect="always"
       inkscape:stockid="Arrow1Mend"
       orient="auto"
       refY="0"
       refX="0"
       id="Arrow1Mend-5"
       style="overflow:visible"
       inkscape:isstock="true">
      <path
         id="path2472-3"
         d="M 0,0 5,-5 -12.5,0 5,5 Z"
         style="fill:#000080;fill-opacity:1;fill-rule:evenodd;stroke:#000080;stroke-width:1pt;stroke-opacity:1"
         transform="matrix(-0.4,0,0,-0.4,-4,0)" />
    </marker>
    <marker
       inkscape:collect="always"
       inkscape:stockid="Arrow1Mend"
       orient="auto"
       refY="0"
       refX="0"
       id="Arrow1Mend-6"
       style="overflow:visible"
       inkscape:isstock="true">
      <path
         id="path2472-2"
         d="M 0,0 5,-5 -12.5,0 5,5 Z"
         style="fill:#000080;fill-opacity:1;fill-rule:evenodd;stroke:#000080;stroke-width:1pt;stroke-opacity:1"
         transform="matrix(-0.4,0,0,-0.4,-4,0)" />
    </marker>
  </defs>
  <sodipodi:namedview
     inkscape:window-maximized="0"
     inkscape:window-y="27"
     inkscape:window-x="0"
     inkscape:window-height="741"
     inkscape:window-width="1333"
     showgrid="false"
     inkscape:document-rotation="0"
     inkscape:current-layer="layer1"
     inkscape:document-units="mm"
     inkscape:cy="545.243"
     inkscape:cx="907.00445"
     inkscape:zoom="0.49497475"
     inkscape:pageshadow="2"
     inkscape:pageopacity="0.0"
     borderopacity="1.0"
     bordercolor="#666666"
     pagecolor="#ffffff"
     id="base" />
  <metadata
     id="metadata5">
    <rdf:RDF>
      <cc:Work
         rdf:about="">
        <dc:format>image/svg+xml</dc:format>
        <dc:type
           rdf:resource="http://purl.org/dc/dcmitype/StillImage" />
        <dc:title></dc:title>
      </cc:Work>
    </rdf:RDF>
  </metadata>
  <g
     id="layer1"
     inkscape:groupmode="layer"
     inkscape:label="Layer 1">
    <g
       style="fill:#000080"
       id="id-bacb0783-3a6b-40f9-90c8-27e2181c4fe2"
       transform="matrix(1.1538184,0,0,1.1538184,-236.25103,-19.28304)">
      <g
         style="fill:#000080;fill-opacity:1"
         id="id-1ec09463-673c-4b44-8677-7ee8709f61ce">
        <g
           style="fill:#000080"
           id="g867"
           transform="translate(148.712,134.765)">
          <path
             style="fill:#000080;stroke:none"
             d="m 6.46875,0 c 0,-0.0625 -0.0625,-0.09375 -0.109375,-0.09375 -0.078125,0 -0.09375,0.046875 -0.125,0.109375 C 6,0.71875 5.421875,0.96875 5.078125,0.96875 4.609375,0.96875 4.46875,0.703125 4.359375,-0.0625 5.90625,-0.640625 7.375,-2.421875 7.375,-4.34375 c 0,-1.609375 -1.0625,-2.6875 -2.546875,-2.6875 -2.140625,0 -4.34375,2.265625 -4.34375,4.59375 0,1.65625 1.125,2.65625 2.5625,2.65625 0.25,0 0.578125,-0.046875 0.96875,-0.15625 -0.03125,0.625 -0.03125,0.640625 -0.03125,0.78125 0,0.3125 0,1.09375 0.828125,1.09375 C 5.984375,1.9375 6.46875,0.109375 6.46875,0 Z M 6.5,-4.671875 c 0,1 -0.515625,3.34375 -2.1875,4.265625 -0.046875,-0.34375 -0.140625,-1.0625 -0.875,-1.0625 -0.53125,0 -1.015625,0.484375 -1.015625,1.015625 0,0.1875 0.0625,0.3125 0.0625,0.3125 -0.78125,-0.3125 -1.125,-1.078125 -1.125,-1.984375 0,-0.6875 0.265625,-2.109375 1.015625,-3.171875 C 3.109375,-6.3125 4.046875,-6.78125 4.78125,-6.78125 5.765625,-6.78125 6.5,-6 6.5,-4.671875 Z M 4.046875,-0.40625 c 0,0.140625 -0.015625,0.15625 -0.109375,0.203125 -0.265625,0.109375 -0.5625,0.171875 -0.84375,0.171875 -0.140625,0 -0.453125,0 -0.453125,-0.421875 0,-0.40625 0.375,-0.796875 0.796875,-0.796875 0.421875,0 0.609375,0.234375 0.609375,0.84375 z m 0,0"
             id="id-5bfc9423-308d-4e2c-9d6f-67e4bd4d3cae" />
        </g>
      </g>
      <g
         style="fill:#000080;fill-opacity:1"
         id="id-65587f8b-88d1-45c3-b3e1-bb0ea05c98c5">
        <g
           style="fill:#000080"
           id="g871"
           transform="translate(159.356,134.765)">
          <path
             style="fill:#000080;stroke:none"
             d="m 6.84375,-3.265625 c 0.15625,0 0.34375,0 0.34375,-0.1875 C 7.1875,-3.65625 7,-3.65625 6.859375,-3.65625 h -5.96875 c -0.140625,0 -0.328125,0 -0.328125,0.203125 0,0.1875 0.1875,0.1875 0.328125,0.1875 z m 0.015625,1.9375 c 0.140625,0 0.328125,0 0.328125,-0.203125 0,-0.1875 -0.1875,-0.1875 -0.34375,-0.1875 H 0.890625 c -0.140625,0 -0.328125,0 -0.328125,0.1875 0,0.203125 0.1875,0.203125 0.328125,0.203125 z m 0,0"
             id="id-75599d14-239b-41d7-94a2-2a9c4e9bc6a7" />
        </g>
      </g>
      <g
         style="fill:#000080;fill-opacity:1"
         id="id-f3312d8e-1688-4e27-b27c-45ab0cc70089">
        <g
           style="fill:#000080"
           id="g875"
           transform="translate(169.872,134.765)">
          <path
             style="fill:#000080;stroke:none"
             d="m 3.3125,2.296875 c 0,0 0,-0.0625 -0.046875,-0.1875 L 1.5,-2.5 3.265625,-7.09375 c 0.046875,-0.125 0.046875,-0.1875 0.046875,-0.1875 0,-0.109375 -0.09375,-0.203125 -0.203125,-0.203125 -0.125,0 -0.171875,0.09375 -0.203125,0.203125 L 1.140625,-2.671875 C 1.09375,-2.546875 1.09375,-2.5 1.09375,-2.5 c 0,0 0,0.0625 0.046875,0.1875 l 1.75,4.578125 C 2.9375,2.390625 2.96875,2.5 3.109375,2.5 3.21875,2.5 3.3125,2.40625 3.3125,2.296875 Z m 0,0"
             id="id-891a6bf1-98e6-4570-b9c4-9da8fb64a7dd" />
        </g>
      </g>
      <g
         style="fill:#000080;fill-opacity:1"
         id="id-9bb9abc3-bfab-4385-a947-7a733e0d80c9">
        <g
           style="fill:#000080"
           id="g879"
           transform="translate(173.746,134.765)">
          <path
             style="fill:#000080;stroke:none"
             d="m 6.4375,-5.515625 c 0,0.34375 -0.15625,1.03125 -0.546875,1.421875 -0.265625,0.25 -0.78125,0.578125 -1.6875,0.578125 H 3.09375 L 3.734375,-6.125 c 0.0625,-0.234375 0.09375,-0.328125 0.28125,-0.359375 C 4.109375,-6.5 4.421875,-6.5 4.625,-6.5 c 0.703125,0 1.8125,0 1.8125,0.984375 z m 1.09375,4.59375 c 0,-0.125 -0.125,-0.125 -0.125,-0.125 -0.09375,0 -0.109375,0.0625 -0.125,0.140625 C 7.03125,-0.171875 6.59375,0 6.375,0 6.046875,0 5.96875,-0.21875 5.96875,-0.609375 c 0,-0.3125 0.0625,-0.8125 0.109375,-1.140625 0.015625,-0.140625 0.03125,-0.328125 0.03125,-0.46875 0,-0.765625 -0.671875,-1.078125 -0.9375,-1.171875 1.015625,-0.21875 2.1875,-0.921875 2.1875,-1.921875 0,-0.859375 -0.890625,-1.5 -2.203125,-1.5 H 2.328125 c -0.203125,0 -0.296875,0 -0.296875,0.203125 C 2.03125,-6.5 2.125,-6.5 2.3125,-6.5 c 0,0 0.203125,0 0.375,0.015625 0.1875,0.03125 0.265625,0.03125 0.265625,0.171875 0,0.03125 0,0.0625 -0.03125,0.1875 l -1.34375,5.34375 C 1.484375,-0.390625 1.46875,-0.3125 0.671875,-0.3125 0.5,-0.3125 0.40625,-0.3125 0.40625,-0.109375 0.40625,0 0.546875,0 0.546875,0 l 1.25,-0.03125 L 3.078125,0 c 0.078125,0 0.1875,0 0.1875,-0.203125 0,-0.109375 -0.078125,-0.109375 -0.28125,-0.109375 -0.359375,0 -0.640625,0 -0.640625,-0.171875 0,-0.0625 0.015625,-0.109375 0.03125,-0.171875 l 0.65625,-2.640625 h 1.1875 c 0.90625,0 1.078125,0.5625 1.078125,0.90625 0,0.140625 -0.078125,0.453125 -0.140625,0.6875 C 5.09375,-1.421875 5,-1.0625 5,-0.859375 5,0.21875 6.203125,0.21875 6.328125,0.21875 c 0.84375,0 1.203125,-1 1.203125,-1.140625 z m 0,0"
             id="id-1ae8cd6d-0871-4d8b-b72a-72f252b6e92b" />
        </g>
      </g>
      <g
         style="fill:#000080;fill-opacity:1"
         id="id-a7444d05-1d90-46d0-a4ff-aac935b8ae19">
        <g
           style="fill:#000080"
           id="g883"
           transform="translate(181.39,134.765)">
          <path
             style="fill:#000080;stroke:none"
             d="m 2.03125,-0.015625 c 0,-0.65625 -0.25,-1.046875 -0.640625,-1.046875 -0.328125,0 -0.53125,0.25 -0.53125,0.53125 C 0.859375,-0.265625 1.0625,0 1.390625,0 1.5,0 1.640625,-0.046875 1.734375,-0.125 1.765625,-0.15625 1.78125,-0.15625 1.78125,-0.15625 c 0,0 0.015625,0 0.015625,0.140625 0,0.75 -0.34375,1.34375 -0.671875,1.671875 -0.109375,0.109375 -0.109375,0.125 -0.109375,0.15625 0,0.078125 0.046875,0.109375 0.09375,0.109375 0.109375,0 0.921875,-0.765625 0.921875,-1.9375 z m 0,0"
             id="id-80cdf39e-779c-480d-be7e-3952bf9acea6" />
        </g>
      </g>
      <g
         style="fill:#000080;fill-opacity:1"
         id="id-a521cd01-9647-4cdd-afbb-ebfdb49e2d65">
        <g
           style="fill:#000080"
           id="g887"
           transform="translate(185.812,134.765)">
          <path
             style="fill:#000080;stroke:none"
             d="m 3.125,-1.421875 c 0,-0.109375 -0.078125,-0.109375 -0.109375,-0.109375 -0.09375,0 -0.109375,0.03125 -0.15625,0.140625 -0.421875,1.046875 -0.953125,1.28125 -1.296875,1.28125 -0.203125,0 -0.3125,-0.125 -0.3125,-0.453125 0,-0.25 0.03125,-0.3125 0.0625,-0.484375 l 0.734375,-2.9375 h 0.9375 c 0.203125,0 0.3125,0 0.3125,-0.203125 0,-0.109375 -0.109375,-0.109375 -0.28125,-0.109375 h -0.875 C 2.5,-5.71875 2.546875,-5.90625 2.546875,-5.96875 c 0,-0.171875 -0.125,-0.265625 -0.296875,-0.265625 -0.03125,0 -0.3125,0 -0.390625,0.359375 L 1.46875,-4.296875 h -0.9375 c -0.203125,0 -0.296875,0 -0.296875,0.1875 0,0.125 0.078125,0.125 0.28125,0.125 h 0.875 C 0.671875,-1.15625 0.625,-0.984375 0.625,-0.8125 0.625,-0.265625 1,0.109375 1.546875,0.109375 2.5625,0.109375 3.125,-1.34375 3.125,-1.421875 Z m 0,0"
             id="id-87729c4a-17ab-457f-b462-4191df6e0a8f" />
        </g>
      </g>
      <g
         style="fill:#000080;fill-opacity:1"
         id="id-3967a245-2568-44d9-a0dd-9703a1918a4a">
        <g
           style="fill:#000080"
           id="g891"
           transform="translate(189.413,136.259)">
          <path
             style="fill:#000080;stroke:none"
             d="m 3.875,-1.90625 c 0,-0.8125 -0.5625,-1.171875 -1.03125,-1.171875 -0.4375,0 -0.8125,0.296875 -1,0.5 -0.109375,-0.40625 -0.5,-0.5 -0.71875,-0.5 -0.265625,0 -0.4375,0.1875 -0.546875,0.375 -0.140625,0.234375 -0.25,0.65625 -0.25,0.703125 0,0.078125 0.09375,0.078125 0.125,0.078125 0.09375,0 0.09375,-0.015625 0.140625,-0.203125 0.109375,-0.40625 0.25,-0.75 0.515625,-0.75 0.1875,0 0.234375,0.15625 0.234375,0.34375 0,0.078125 -0.015625,0.15625 -0.03125,0.203125 L 0.515625,0.84375 c -0.046875,0.203125 -0.0625,0.25 -0.328125,0.25 -0.09375,0 -0.1875,0 -0.1875,0.15625 0,0.078125 0.0625,0.109375 0.09375,0.109375 0.171875,0 0.40625,-0.03125 0.59375,-0.03125 0.234375,0 0.5,0.03125 0.734375,0.03125 0.0625,0 0.140625,-0.03125 0.140625,-0.15625 0,-0.109375 -0.09375,-0.109375 -0.1875,-0.109375 -0.15625,0 -0.34375,0 -0.34375,-0.078125 0,-0.03125 0.0625,-0.21875 0.078125,-0.3125 L 1.375,-0.34375 C 1.453125,-0.203125 1.671875,0.0625 2.09375,0.0625 2.9375,0.0625 3.875,-0.875 3.875,-1.90625 Z M 3.328125,-2.203125 c 0,0.28125 -0.15625,1 -0.359375,1.40625 -0.1875,0.34375 -0.515625,0.671875 -0.875,0.671875 -0.5,0 -0.625,-0.53125 -0.625,-0.609375 0,-0.03125 0.015625,-0.078125 0.015625,-0.109375 L 1.84375,-2.234375 C 2.25,-2.78125 2.59375,-2.875 2.8125,-2.875 c 0.28125,0 0.515625,0.203125 0.515625,0.671875 z m 0,0"
             id="id-c43b9fec-06ff-4633-970a-f58791f9234b" />
        </g>
      </g>
      <g
         style="fill:#000080;fill-opacity:1"
         id="id-763742bb-7959-4f59-83f6-92c8cff739e0">
        <g
           style="fill:#000080"
           id="g895"
           transform="translate(194.018,134.765)">
          <path
             style="fill:#000080;stroke:none"
             d="m 2.03125,-0.015625 c 0,-0.65625 -0.25,-1.046875 -0.640625,-1.046875 -0.328125,0 -0.53125,0.25 -0.53125,0.53125 C 0.859375,-0.265625 1.0625,0 1.390625,0 1.5,0 1.640625,-0.046875 1.734375,-0.125 1.765625,-0.15625 1.78125,-0.15625 1.78125,-0.15625 c 0,0 0.015625,0 0.015625,0.140625 0,0.75 -0.34375,1.34375 -0.671875,1.671875 -0.109375,0.109375 -0.109375,0.125 -0.109375,0.15625 0,0.078125 0.046875,0.109375 0.09375,0.109375 0.109375,0 0.921875,-0.765625 0.921875,-1.9375 z m 0,0"
             id="id-fb032865-2aff-482d-a390-0ef6de9d45f4" />
        </g>
      </g>
      <g
         style="fill:#000080;fill-opacity:1"
         id="id-b450bfd0-bf98-4ef2-b398-846b4f3520fd">
        <g
           style="fill:#000080"
           id="g899"
           transform="translate(198.449,134.765)">
          <path
             style="fill:#000080;stroke:none"
             d="m 3.125,-1.421875 c 0,-0.109375 -0.078125,-0.109375 -0.109375,-0.109375 -0.09375,0 -0.109375,0.03125 -0.15625,0.140625 -0.421875,1.046875 -0.953125,1.28125 -1.296875,1.28125 -0.203125,0 -0.3125,-0.125 -0.3125,-0.453125 0,-0.25 0.03125,-0.3125 0.0625,-0.484375 l 0.734375,-2.9375 h 0.9375 c 0.203125,0 0.3125,0 0.3125,-0.203125 0,-0.109375 -0.109375,-0.109375 -0.28125,-0.109375 h -0.875 C 2.5,-5.71875 2.546875,-5.90625 2.546875,-5.96875 c 0,-0.171875 -0.125,-0.265625 -0.296875,-0.265625 -0.03125,0 -0.3125,0 -0.390625,0.359375 L 1.46875,-4.296875 h -0.9375 c -0.203125,0 -0.296875,0 -0.296875,0.1875 0,0.125 0.078125,0.125 0.28125,0.125 h 0.875 C 0.671875,-1.15625 0.625,-0.984375 0.625,-0.8125 0.625,-0.265625 1,0.109375 1.546875,0.109375 2.5625,0.109375 3.125,-1.34375 3.125,-1.421875 Z m 0,0"
             id="id-459766e3-8c84-418d-aadd-78c24a326e86" />
        </g>
      </g>
      <g
         style="fill:#000080;fill-opacity:1"
         id="id-ee9adfbe-e973-4663-bb37-b085b51afc42">
        <g
           style="fill:#000080"
           id="g903"
           transform="translate(202.044,136.259)">
          <path
             style="fill:#000080;stroke:none"
             d="m 4.203125,-4.40625 c 0,-0.328125 -0.328125,-0.5 -0.6875,-0.5 -0.3125,0 -0.65625,0.171875 -0.84375,0.515625 C 2.53125,-4.125 2.484375,-3.8125 2.328125,-3 H 1.78125 c -0.140625,0 -0.234375,0 -0.234375,0.15625 0,0.09375 0.09375,0.09375 0.21875,0.09375 H 2.28125 L 1.671875,0.546875 C 1.640625,0.703125 1.515625,1.21875 1.1875,1.21875 c 0,0 -0.171875,0 -0.3125,-0.078125 0.28125,-0.09375 0.3125,-0.34375 0.3125,-0.375 C 1.1875,0.609375 1.0625,0.5 0.90625,0.5 c -0.1875,0 -0.390625,0.15625 -0.390625,0.421875 0,0.3125 0.328125,0.5 0.671875,0.5 0.4375,0 0.75,-0.453125 0.828125,-0.609375 0.25,-0.46875 0.421875,-1.328125 0.4375,-1.40625 L 2.84375,-2.75 H 3.515625 C 3.65625,-2.75 3.75,-2.75 3.75,-2.90625 3.75,-3 3.65625,-3 3.53125,-3 H 2.890625 c 0.15625,-0.890625 0.203125,-1.203125 0.265625,-1.40625 0.03125,-0.15625 0.1875,-0.296875 0.359375,-0.296875 0,0 0.1875,0 0.328125,0.078125 -0.296875,0.09375 -0.3125,0.34375 -0.3125,0.375 0,0.15625 0.125,0.265625 0.28125,0.265625 0.1875,0 0.390625,-0.15625 0.390625,-0.421875 z m 0,0"
             id="id-f4a56d1b-6bac-4726-a9e1-74fb27dea442" />
        </g>
      </g>
      <g
         style="fill:#000080;fill-opacity:1"
         id="id-8f80d8d2-5b73-43c9-8ad1-875614c3b731">
        <g
           style="fill:#000080"
           id="g907"
           transform="translate(207.208,134.765)">
          <path
             style="fill:#000080;stroke:none"
             d="m 2.03125,-0.015625 c 0,-0.65625 -0.25,-1.046875 -0.640625,-1.046875 -0.328125,0 -0.53125,0.25 -0.53125,0.53125 C 0.859375,-0.265625 1.0625,0 1.390625,0 1.5,0 1.640625,-0.046875 1.734375,-0.125 1.765625,-0.15625 1.78125,-0.15625 1.78125,-0.15625 c 0,0 0.015625,0 0.015625,0.140625 0,0.75 -0.34375,1.34375 -0.671875,1.671875 -0.109375,0.109375 -0.109375,0.125 -0.109375,0.15625 0,0.078125 0.046875,0.109375 0.09375,0.109375 0.109375,0 0.921875,-0.765625 0.921875,-1.9375 z m 0,0"
             id="id-7500e7f7-e1eb-40e1-9900-2eb836a98979" />
        </g>
      </g>
      <g
         style="fill:#000080;fill-opacity:1"
         id="id-cce1eafe-24ae-4040-be7c-13264eca01a9">
        <g
           style="fill:#000080"
           id="g911"
           transform="translate(211.639,134.765)">
          <path
             style="fill:#000080;stroke:none"
             d="m 6.46875,0 c 0,-0.0625 -0.0625,-0.09375 -0.109375,-0.09375 -0.078125,0 -0.09375,0.046875 -0.125,0.109375 C 6,0.71875 5.421875,0.96875 5.078125,0.96875 4.609375,0.96875 4.46875,0.703125 4.359375,-0.0625 5.90625,-0.640625 7.375,-2.421875 7.375,-4.34375 c 0,-1.609375 -1.0625,-2.6875 -2.546875,-2.6875 -2.140625,0 -4.34375,2.265625 -4.34375,4.59375 0,1.65625 1.125,2.65625 2.5625,2.65625 0.25,0 0.578125,-0.046875 0.96875,-0.15625 -0.03125,0.625 -0.03125,0.640625 -0.03125,0.78125 0,0.3125 0,1.09375 0.828125,1.09375 C 5.984375,1.9375 6.46875,0.109375 6.46875,0 Z M 6.5,-4.671875 c 0,1 -0.515625,3.34375 -2.1875,4.265625 -0.046875,-0.34375 -0.140625,-1.0625 -0.875,-1.0625 -0.53125,0 -1.015625,0.484375 -1.015625,1.015625 0,0.1875 0.0625,0.3125 0.0625,0.3125 -0.78125,-0.3125 -1.125,-1.078125 -1.125,-1.984375 0,-0.6875 0.265625,-2.109375 1.015625,-3.171875 C 3.109375,-6.3125 4.046875,-6.78125 4.78125,-6.78125 5.765625,-6.78125 6.5,-6 6.5,-4.671875 Z M 4.046875,-0.40625 c 0,0.140625 -0.015625,0.15625 -0.109375,0.203125 -0.265625,0.109375 -0.5625,0.171875 -0.84375,0.171875 -0.140625,0 -0.453125,0 -0.453125,-0.421875 0,-0.40625 0.375,-0.796875 0.796875,-0.796875 0.421875,0 0.609375,0.234375 0.609375,0.84375 z m 0,0"
             id="id-f3838831-c613-4561-b87b-58c5ed723da7" />
        </g>
      </g>
      <g
         style="fill:#000080;fill-opacity:1"
         id="id-9582a51c-054c-41a5-930a-92065588ad55">
        <g
           style="fill:#000080"
           id="g915"
           transform="translate(219.512,136.259)">
          <path
             style="fill:#000080;stroke:none"
             d="m 6.71875,-1 c 0,-0.09375 -0.078125,-0.09375 -0.109375,-0.09375 -0.09375,0 -0.09375,0.046875 -0.125,0.125 C 6.328125,-0.40625 6.015625,-0.125 5.75,-0.125 c -0.15625,0 -0.1875,-0.09375 -0.1875,-0.25 0,-0.15625 0.046875,-0.25 0.171875,-0.5625 0.078125,-0.21875 0.359375,-0.953125 0.359375,-1.34375 0,-0.109375 0,-0.40625 -0.25,-0.609375 -0.125,-0.078125 -0.328125,-0.1875 -0.65625,-0.1875 -0.625,0 -1,0.421875 -1.234375,0.703125 C 3.90625,-2.96875 3.40625,-3.078125 3.046875,-3.078125 2.46875,-3.078125 2.078125,-2.71875 1.875,-2.4375 1.828125,-2.921875 1.421875,-3.078125 1.125,-3.078125 c -0.296875,0 -0.453125,0.21875 -0.546875,0.375 -0.15625,0.265625 -0.25,0.65625 -0.25,0.703125 0,0.078125 0.09375,0.078125 0.125,0.078125 0.09375,0 0.09375,-0.015625 0.140625,-0.203125 0.109375,-0.40625 0.25,-0.75 0.515625,-0.75 0.1875,0 0.234375,0.15625 0.234375,0.34375 0,0.125 -0.0625,0.390625 -0.125,0.578125 l -0.140625,0.625 L 0.84375,-0.4375 c -0.015625,0.09375 -0.0625,0.265625 -0.0625,0.28125 0,0.15625 0.125,0.21875 0.234375,0.21875 0.125,0 0.234375,-0.078125 0.28125,-0.140625 0.03125,-0.0625 0.078125,-0.296875 0.125,-0.4375 l 0.140625,-0.625 c 0.046875,-0.15625 0.09375,-0.3125 0.125,-0.46875 0.078125,-0.28125 0.09375,-0.34375 0.296875,-0.625 C 2.171875,-2.515625 2.5,-2.875 3.03125,-2.875 c 0.390625,0 0.40625,0.359375 0.40625,0.484375 0,0.171875 -0.015625,0.265625 -0.125,0.65625 L 3.03125,-0.5625 c -0.046875,0.140625 -0.109375,0.375 -0.109375,0.40625 0,0.15625 0.125,0.21875 0.234375,0.21875 0.140625,0 0.25,-0.078125 0.28125,-0.140625 0.03125,-0.0625 0.09375,-0.296875 0.125,-0.4375 l 0.15625,-0.625 C 3.75,-1.296875 3.796875,-1.453125 3.828125,-1.609375 3.90625,-1.90625 3.90625,-1.921875 4.046875,-2.140625 4.265625,-2.484375 4.625,-2.875 5.15625,-2.875 c 0.390625,0 0.421875,0.3125 0.421875,0.484375 0,0.421875 -0.296875,1.1875 -0.421875,1.484375 -0.0625,0.203125 -0.09375,0.265625 -0.09375,0.375 0,0.375 0.296875,0.59375 0.65625,0.59375 0.703125,0 1,-0.953125 1,-1.0625 z m 0,0"
             id="id-bdbec46b-96ee-4f6b-9e6b-9ec2a13a7aad" />
        </g>
      </g>
      <g
         style="fill:#000080;fill-opacity:1"
         id="id-db33f932-210b-4f11-b5b0-2fde094e8482">
        <g
           style="fill:#000080"
           id="g919"
           transform="translate(227.08,134.765)">
          <path
             style="fill:#000080;stroke:none"
             d="m 2.765625,-2.5 c 0,0 0,-0.046875 -0.046875,-0.171875 L 0.984375,-7.25 C 0.921875,-7.375 0.890625,-7.484375 0.75,-7.484375 c -0.109375,0 -0.1875,0.09375 -0.1875,0.203125 0,0 0,0.0625 0.046875,0.1875 l 1.75,4.59375 -1.75,4.609375 C 0.5625,2.234375 0.5625,2.296875 0.5625,2.296875 0.5625,2.40625 0.640625,2.5 0.75,2.5 0.890625,2.5 0.921875,2.40625 0.96875,2.296875 l 1.75,-4.609375 C 2.765625,-2.4375 2.765625,-2.5 2.765625,-2.5 Z m 0,0"
             id="id-a3f70740-6226-4d5c-95bd-df81771518a7" />
        </g>
      </g>
    </g>
    <text
       id="text1605"
       y="124.13702"
       x="346.7778"
       style="font-size:10.5833px;line-height:1.25;font-family:Arial;-inkscape-font-specification:Arial;text-align:center;text-anchor:middle;fill:#ff0000;stroke-width:0.264583"
       xml:space="preserve"><tspan
         style="text-align:center;text-anchor:middle;fill:#ff0000;stroke-width:0.264583"
         y="124.13702"
         x="346.7778"
         id="tspan1603"
         sodipodi:role="line">Compute</tspan><tspan
         id="tspan1609"
         style="text-align:center;text-anchor:middle;fill:#ff0000;stroke-width:0.264583"
         y="137.36613"
         x="346.7778"
         sodipodi:role="line">Forecast  Value</tspan></text>
    <g
       transform="translate(-4.9616778,2.1446087)"
       id="g2984">
      <text
         xml:space="preserve"
         style="font-size:10.5833px;line-height:1.25;font-family:Arial;-inkscape-font-specification:Arial;text-align:center;text-anchor:middle;fill:#008000;stroke-width:0.264583"
         x="103.2554"
         y="130.68698"
         id="text1420"><tspan
           sodipodi:role="line"
           id="tspan1418"
           x="103.2554"
           y="130.68698"
           style="text-align:center;text-anchor:middle;fill:#008000;stroke-width:0.264583">Extract query </tspan><tspan
           sodipodi:role="line"
           x="103.2554"
           y="143.91611"
           style="text-align:center;text-anchor:middle;fill:#008000;stroke-width:0.264583"
           id="tspan1954">region elements </tspan><tspan
           sodipodi:role="line"
           x="103.2554"
           y="157.14523"
           style="text-align:center;text-anchor:middle;fill:#008000;stroke-width:0.264583"
           id="tspan1611" /></text>
      <g
         id="g2110"
         ns14:jacobian_sqrt="1.00005"
         ns14:inkscapeversion="1.0"
         ns14:alignment="middle center"
         ns14:scale="2.834798088316165"
         ns14:preamble="/home/rocio/.config/inkscape/extensions/textext/default_packages.tex"
         ns14:text="$\\left[R \\times t_{p}\\right]$"
         ns14:pdfconverter="inkscape"
         ns14:texconverter="pdflatex"
         ns14:version="1.1.0"
         transform="matrix(1.1607942,0,0,1.1607942,84.02654,151.73427)"
         style="fill:#008000;stroke-width:0.861479;stroke-miterlimit:4;stroke-dasharray:none">
        <defs
           id="id-fe8e5ea7-c7bc-469a-8861-58603e2ea1e5">
          <g
             id="id-afdfc835-7c63-4926-82ff-98bd5d0d5f82">
            <symbol
               overflow="visible"
               id="id-730d6bb0-d753-460f-af6e-9151b1035980">
              <path
                 style="stroke:none"
                 d=""
                 id="id-1f1d561b-4768-44bb-ba49-f1331f61c3c8" />
            </symbol>
            <symbol
               overflow="visible"
               id="id-8033f51e-0d53-40aa-a74d-e05e9665f7d8">
              <path
                 style="stroke:none"
                 d="M 2.546875,2.5 V 2.09375 h -0.96875 v -9.171875 h 0.96875 v -0.40625 h -1.375 V 2.5 Z m 0,0"
                 id="id-d2d85bcc-fb48-4ce9-973d-cb111d2c0b43" />
            </symbol>
            <symbol
               overflow="visible"
               id="id-989f9003-01d9-477e-a915-0c1a9b5432c3">
              <path
                 style="stroke:none"
                 d="M 1.578125,-7.484375 H 0.21875 v 0.40625 H 1.1875 V 2.09375 H 0.21875 V 2.5 h 1.359375 z m 0,0"
                 id="id-779fc1f8-d217-469a-a2fa-8e9981466192" />
            </symbol>
            <symbol
               overflow="visible"
               id="id-03038482-df14-46c8-b63c-20e75312c0e6">
              <path
                 style="stroke:none"
                 d=""
                 id="id-f9b95406-3d4f-4c6f-896f-af39271aa400" />
            </symbol>
            <symbol
               overflow="visible"
               id="id-e898a68c-d57e-4318-9b31-3ce570bc95c1">
              <path
                 style="stroke:none"
                 d="m 6.4375,-5.515625 c 0,0.34375 -0.15625,1.03125 -0.546875,1.421875 -0.265625,0.25 -0.78125,0.578125 -1.6875,0.578125 H 3.09375 L 3.734375,-6.125 c 0.0625,-0.234375 0.09375,-0.328125 0.28125,-0.359375 C 4.109375,-6.5 4.421875,-6.5 4.625,-6.5 c 0.703125,0 1.8125,0 1.8125,0.984375 z m 1.09375,4.59375 c 0,-0.125 -0.125,-0.125 -0.125,-0.125 -0.09375,0 -0.109375,0.0625 -0.125,0.140625 C 7.03125,-0.171875 6.59375,0 6.375,0 6.046875,0 5.96875,-0.21875 5.96875,-0.609375 c 0,-0.3125 0.0625,-0.8125 0.109375,-1.140625 0.015625,-0.140625 0.03125,-0.328125 0.03125,-0.46875 0,-0.765625 -0.671875,-1.078125 -0.9375,-1.171875 1.015625,-0.21875 2.1875,-0.921875 2.1875,-1.921875 0,-0.859375 -0.890625,-1.5 -2.203125,-1.5 H 2.328125 c -0.203125,0 -0.296875,0 -0.296875,0.203125 C 2.03125,-6.5 2.125,-6.5 2.3125,-6.5 c 0,0 0.203125,0 0.375,0.015625 0.1875,0.03125 0.265625,0.03125 0.265625,0.171875 0,0.03125 0,0.0625 -0.03125,0.1875 l -1.34375,5.34375 C 1.484375,-0.390625 1.46875,-0.3125 0.671875,-0.3125 0.5,-0.3125 0.40625,-0.3125 0.40625,-0.109375 0.40625,0 0.546875,0 0.546875,0 l 1.25,-0.03125 L 3.078125,0 c 0.078125,0 0.1875,0 0.1875,-0.203125 0,-0.109375 -0.078125,-0.109375 -0.28125,-0.109375 -0.359375,0 -0.640625,0 -0.640625,-0.171875 0,-0.0625 0.015625,-0.109375 0.03125,-0.171875 l 0.65625,-2.640625 h 1.1875 c 0.90625,0 1.078125,0.5625 1.078125,0.90625 0,0.140625 -0.078125,0.453125 -0.140625,0.6875 C 5.09375,-1.421875 5,-1.0625 5,-0.859375 5,0.21875 6.203125,0.21875 6.328125,0.21875 c 0.84375,0 1.203125,-1 1.203125,-1.140625 z m 0,0"
                 id="id-d0b97ea8-4e01-419e-ac8d-784187016d44" />
            </symbol>
            <symbol
               overflow="visible"
               id="id-ba1f5489-fd21-44af-b4e5-192f651d5f59">
              <path
                 style="stroke:none"
                 d="m 3.125,-1.421875 c 0,-0.109375 -0.078125,-0.109375 -0.109375,-0.109375 -0.09375,0 -0.109375,0.03125 -0.15625,0.140625 -0.421875,1.046875 -0.953125,1.28125 -1.296875,1.28125 -0.203125,0 -0.3125,-0.125 -0.3125,-0.453125 0,-0.25 0.03125,-0.3125 0.0625,-0.484375 l 0.734375,-2.9375 h 0.9375 c 0.203125,0 0.3125,0 0.3125,-0.203125 0,-0.109375 -0.109375,-0.109375 -0.28125,-0.109375 h -0.875 C 2.5,-5.71875 2.546875,-5.90625 2.546875,-5.96875 c 0,-0.171875 -0.125,-0.265625 -0.296875,-0.265625 -0.03125,0 -0.3125,0 -0.390625,0.359375 L 1.46875,-4.296875 h -0.9375 c -0.203125,0 -0.296875,0 -0.296875,0.1875 0,0.125 0.078125,0.125 0.28125,0.125 h 0.875 C 0.671875,-1.15625 0.625,-0.984375 0.625,-0.8125 0.625,-0.265625 1,0.109375 1.546875,0.109375 2.5625,0.109375 3.125,-1.34375 3.125,-1.421875 Z m 0,0"
                 id="id-90a30e4c-c806-48f8-bc9d-0c6ca5402655" />
            </symbol>
            <symbol
               overflow="visible"
               id="id-09e1582e-033c-4b45-8aef-139b85415781">
              <path
                 style="stroke:none"
                 d=""
                 id="id-0bdb5a96-405e-49dc-bdab-862acca2e644" />
            </symbol>
            <symbol
               overflow="visible"
               id="id-51767f87-d3b6-4d15-a88f-66b9bb928592">
              <path
                 style="stroke:none"
                 d="M 6.28125,-0.296875 C 6.28125,-0.375 6.265625,-0.390625 6.15625,-0.5 l -1.984375,-2 1.984375,-1.984375 c 0.109375,-0.109375 0.125,-0.125 0.125,-0.203125 0,-0.125 -0.09375,-0.203125 -0.203125,-0.203125 -0.078125,0 -0.109375,0.03125 -0.203125,0.125 l -2,2 -2,-2 c -0.109375,-0.109375 -0.125,-0.125 -0.203125,-0.125 -0.109375,0 -0.203125,0.078125 -0.203125,0.203125 0,0.078125 0.03125,0.109375 0.125,0.203125 L 3.578125,-2.5 1.59375,-0.515625 c -0.09375,0.109375 -0.125,0.171875 -0.125,0.21875 0,0.125 0.09375,0.203125 0.203125,0.203125 0.078125,0 0.09375,-0.015625 0.203125,-0.125 l 2,-2 1.984375,2 c 0.109375,0.09375 0.15625,0.125 0.21875,0.125 0.125,0 0.203125,-0.078125 0.203125,-0.203125 z m 0,0"
                 id="id-940d3e33-748d-4687-b071-a3a4387bf114" />
            </symbol>
            <symbol
               overflow="visible"
               id="id-0033a4b1-996a-41f1-9eb1-2be92845541f">
              <path
                 style="stroke:none"
                 d=""
                 id="id-2bf0db94-e3da-4499-bedb-2c8e7fdfc3ab" />
            </symbol>
            <symbol
               overflow="visible"
               id="id-b4e277a4-0d80-4176-9391-11d35c6354c4">
              <path
                 style="stroke:none"
                 d="m 3.875,-1.90625 c 0,-0.8125 -0.5625,-1.171875 -1.03125,-1.171875 -0.4375,0 -0.8125,0.296875 -1,0.5 -0.109375,-0.40625 -0.5,-0.5 -0.71875,-0.5 -0.265625,0 -0.4375,0.1875 -0.546875,0.375 -0.140625,0.234375 -0.25,0.65625 -0.25,0.703125 0,0.078125 0.09375,0.078125 0.125,0.078125 0.09375,0 0.09375,-0.015625 0.140625,-0.203125 0.109375,-0.40625 0.25,-0.75 0.515625,-0.75 0.1875,0 0.234375,0.15625 0.234375,0.34375 0,0.078125 -0.015625,0.15625 -0.03125,0.203125 L 0.515625,0.84375 c -0.046875,0.203125 -0.0625,0.25 -0.328125,0.25 -0.09375,0 -0.1875,0 -0.1875,0.15625 0,0.078125 0.0625,0.109375 0.09375,0.109375 0.171875,0 0.40625,-0.03125 0.59375,-0.03125 0.234375,0 0.5,0.03125 0.734375,0.03125 0.0625,0 0.140625,-0.03125 0.140625,-0.15625 0,-0.109375 -0.09375,-0.109375 -0.1875,-0.109375 -0.15625,0 -0.34375,0 -0.34375,-0.078125 0,-0.03125 0.0625,-0.21875 0.078125,-0.3125 L 1.375,-0.34375 C 1.453125,-0.203125 1.671875,0.0625 2.09375,0.0625 2.9375,0.0625 3.875,-0.875 3.875,-1.90625 Z M 3.328125,-2.203125 c 0,0.28125 -0.15625,1 -0.359375,1.40625 -0.1875,0.34375 -0.515625,0.671875 -0.875,0.671875 -0.5,0 -0.625,-0.53125 -0.625,-0.609375 0,-0.03125 0.015625,-0.078125 0.015625,-0.109375 L 1.84375,-2.234375 C 2.25,-2.78125 2.59375,-2.875 2.8125,-2.875 c 0.28125,0 0.515625,0.203125 0.515625,0.671875 z m 0,0"
                 id="id-f0c0e87a-d547-448a-a864-ffed41da1c9f" />
            </symbol>
          </g>
        </defs>
        <g
           id="id-517cf5ca-55b2-4374-98e7-86724e59ac31"
           transform="translate(-149.884,-127.281)"
           style="fill:#008000;stroke-width:0.861479;stroke-miterlimit:4;stroke-dasharray:none">
          <g
             style="fill:#008000;fill-opacity:1;stroke-width:0.861479;stroke-miterlimit:4;stroke-dasharray:none"
             id="id-be9be48e-5659-46f5-815e-ab11f1062e8c">
            <g
               id="g2086"
               transform="translate(148.712,134.765)"
               style="fill:#008000;stroke-width:0.861479;stroke-miterlimit:4;stroke-dasharray:none">
              <path
                 style="fill:#008000;stroke:none;stroke-width:0.861479;stroke-miterlimit:4;stroke-dasharray:none"
                 d="M 2.546875,2.5 V 2.09375 h -0.96875 v -9.171875 h 0.96875 v -0.40625 h -1.375 V 2.5 Z m 0,0"
                 id="id-98e201e3-a99e-4e75-929d-85eeba447713" />
            </g>
          </g>
          <g
             style="fill:#008000;fill-opacity:1;stroke-width:0.861479;stroke-miterlimit:4;stroke-dasharray:none"
             id="id-fabc72d4-4a2b-43f0-ab6d-998f042ebba7">
            <g
               id="g2090"
               transform="translate(151.48,134.765)"
               style="fill:#008000;stroke-width:0.861479;stroke-miterlimit:4;stroke-dasharray:none">
              <path
                 style="fill:#008000;stroke:none;stroke-width:0.861479;stroke-miterlimit:4;stroke-dasharray:none"
                 d="m 6.4375,-5.515625 c 0,0.34375 -0.15625,1.03125 -0.546875,1.421875 -0.265625,0.25 -0.78125,0.578125 -1.6875,0.578125 H 3.09375 L 3.734375,-6.125 c 0.0625,-0.234375 0.09375,-0.328125 0.28125,-0.359375 C 4.109375,-6.5 4.421875,-6.5 4.625,-6.5 c 0.703125,0 1.8125,0 1.8125,0.984375 z m 1.09375,4.59375 c 0,-0.125 -0.125,-0.125 -0.125,-0.125 -0.09375,0 -0.109375,0.0625 -0.125,0.140625 C 7.03125,-0.171875 6.59375,0 6.375,0 6.046875,0 5.96875,-0.21875 5.96875,-0.609375 c 0,-0.3125 0.0625,-0.8125 0.109375,-1.140625 0.015625,-0.140625 0.03125,-0.328125 0.03125,-0.46875 0,-0.765625 -0.671875,-1.078125 -0.9375,-1.171875 1.015625,-0.21875 2.1875,-0.921875 2.1875,-1.921875 0,-0.859375 -0.890625,-1.5 -2.203125,-1.5 H 2.328125 c -0.203125,0 -0.296875,0 -0.296875,0.203125 C 2.03125,-6.5 2.125,-6.5 2.3125,-6.5 c 0,0 0.203125,0 0.375,0.015625 0.1875,0.03125 0.265625,0.03125 0.265625,0.171875 0,0.03125 0,0.0625 -0.03125,0.1875 l -1.34375,5.34375 C 1.484375,-0.390625 1.46875,-0.3125 0.671875,-0.3125 0.5,-0.3125 0.40625,-0.3125 0.40625,-0.109375 0.40625,0 0.546875,0 0.546875,0 l 1.25,-0.03125 L 3.078125,0 c 0.078125,0 0.1875,0 0.1875,-0.203125 0,-0.109375 -0.078125,-0.109375 -0.28125,-0.109375 -0.359375,0 -0.640625,0 -0.640625,-0.171875 0,-0.0625 0.015625,-0.109375 0.03125,-0.171875 l 0.65625,-2.640625 h 1.1875 c 0.90625,0 1.078125,0.5625 1.078125,0.90625 0,0.140625 -0.078125,0.453125 -0.140625,0.6875 C 5.09375,-1.421875 5,-1.0625 5,-0.859375 5,0.21875 6.203125,0.21875 6.328125,0.21875 c 0.84375,0 1.203125,-1 1.203125,-1.140625 z m 0,0"
                 id="id-ea73ad95-8fad-4522-9116-a2a9eecb95f0" />
            </g>
          </g>
          <g
             style="fill:#008000;fill-opacity:1;stroke-width:0.861479;stroke-miterlimit:4;stroke-dasharray:none"
             id="id-0080d3f7-809d-4ba8-ae12-48ecbc2a9e6c">
            <g
               id="g2094"
               transform="translate(161.335,134.765)"
               style="fill:#008000;stroke-width:0.861479;stroke-miterlimit:4;stroke-dasharray:none">
              <path
                 style="fill:#008000;stroke:none;stroke-width:0.861479;stroke-miterlimit:4;stroke-dasharray:none"
                 d="M 6.28125,-0.296875 C 6.28125,-0.375 6.265625,-0.390625 6.15625,-0.5 l -1.984375,-2 1.984375,-1.984375 c 0.109375,-0.109375 0.125,-0.125 0.125,-0.203125 0,-0.125 -0.09375,-0.203125 -0.203125,-0.203125 -0.078125,0 -0.109375,0.03125 -0.203125,0.125 l -2,2 -2,-2 c -0.109375,-0.109375 -0.125,-0.125 -0.203125,-0.125 -0.109375,0 -0.203125,0.078125 -0.203125,0.203125 0,0.078125 0.03125,0.109375 0.125,0.203125 L 3.578125,-2.5 1.59375,-0.515625 c -0.09375,0.109375 -0.125,0.171875 -0.125,0.21875 0,0.125 0.09375,0.203125 0.203125,0.203125 0.078125,0 0.09375,-0.015625 0.203125,-0.125 l 2,-2 1.984375,2 c 0.109375,0.09375 0.15625,0.125 0.21875,0.125 0.125,0 0.203125,-0.078125 0.203125,-0.203125 z m 0,0"
                 id="id-bea7d91e-cf73-49a8-b174-fb062989fd74" />
            </g>
          </g>
          <g
             style="fill:#008000;fill-opacity:1;stroke-width:0.861479;stroke-miterlimit:4;stroke-dasharray:none"
             id="id-9396b4d9-41c0-4333-afd9-6fa452dd1dde">
            <g
               id="g2098"
               transform="translate(171.298,134.765)"
               style="fill:#008000;stroke-width:0.861479;stroke-miterlimit:4;stroke-dasharray:none">
              <path
                 style="fill:#008000;stroke:none;stroke-width:0.861479;stroke-miterlimit:4;stroke-dasharray:none"
                 d="m 3.125,-1.421875 c 0,-0.109375 -0.078125,-0.109375 -0.109375,-0.109375 -0.09375,0 -0.109375,0.03125 -0.15625,0.140625 -0.421875,1.046875 -0.953125,1.28125 -1.296875,1.28125 -0.203125,0 -0.3125,-0.125 -0.3125,-0.453125 0,-0.25 0.03125,-0.3125 0.0625,-0.484375 l 0.734375,-2.9375 h 0.9375 c 0.203125,0 0.3125,0 0.3125,-0.203125 0,-0.109375 -0.109375,-0.109375 -0.28125,-0.109375 h -0.875 C 2.5,-5.71875 2.546875,-5.90625 2.546875,-5.96875 c 0,-0.171875 -0.125,-0.265625 -0.296875,-0.265625 -0.03125,0 -0.3125,0 -0.390625,0.359375 L 1.46875,-4.296875 h -0.9375 c -0.203125,0 -0.296875,0 -0.296875,0.1875 0,0.125 0.078125,0.125 0.28125,0.125 h 0.875 C 0.671875,-1.15625 0.625,-0.984375 0.625,-0.8125 0.625,-0.265625 1,0.109375 1.546875,0.109375 2.5625,0.109375 3.125,-1.34375 3.125,-1.421875 Z m 0,0"
                 id="id-e432c0dd-5de1-4752-8459-f59a3b75afec" />
            </g>
          </g>
          <g
             style="fill:#008000;fill-opacity:1;stroke-width:0.861479;stroke-miterlimit:4;stroke-dasharray:none"
             id="id-e6d11bf6-9dcb-414c-a0c0-23e99b8ec83b">
            <g
               id="g2102"
               transform="translate(174.895,136.259)"
               style="fill:#008000;stroke-width:0.861479;stroke-miterlimit:4;stroke-dasharray:none">
              <path
                 style="fill:#008000;stroke:none;stroke-width:0.861479;stroke-miterlimit:4;stroke-dasharray:none"
                 d="m 3.875,-1.90625 c 0,-0.8125 -0.5625,-1.171875 -1.03125,-1.171875 -0.4375,0 -0.8125,0.296875 -1,0.5 -0.109375,-0.40625 -0.5,-0.5 -0.71875,-0.5 -0.265625,0 -0.4375,0.1875 -0.546875,0.375 -0.140625,0.234375 -0.25,0.65625 -0.25,0.703125 0,0.078125 0.09375,0.078125 0.125,0.078125 0.09375,0 0.09375,-0.015625 0.140625,-0.203125 0.109375,-0.40625 0.25,-0.75 0.515625,-0.75 0.1875,0 0.234375,0.15625 0.234375,0.34375 0,0.078125 -0.015625,0.15625 -0.03125,0.203125 L 0.515625,0.84375 c -0.046875,0.203125 -0.0625,0.25 -0.328125,0.25 -0.09375,0 -0.1875,0 -0.1875,0.15625 0,0.078125 0.0625,0.109375 0.09375,0.109375 0.171875,0 0.40625,-0.03125 0.59375,-0.03125 0.234375,0 0.5,0.03125 0.734375,0.03125 0.0625,0 0.140625,-0.03125 0.140625,-0.15625 0,-0.109375 -0.09375,-0.109375 -0.1875,-0.109375 -0.15625,0 -0.34375,0 -0.34375,-0.078125 0,-0.03125 0.0625,-0.21875 0.078125,-0.3125 L 1.375,-0.34375 C 1.453125,-0.203125 1.671875,0.0625 2.09375,0.0625 2.9375,0.0625 3.875,-0.875 3.875,-1.90625 Z M 3.328125,-2.203125 c 0,0.28125 -0.15625,1 -0.359375,1.40625 -0.1875,0.34375 -0.515625,0.671875 -0.875,0.671875 -0.5,0 -0.625,-0.53125 -0.625,-0.609375 0,-0.03125 0.015625,-0.078125 0.015625,-0.109375 L 1.84375,-2.234375 C 2.25,-2.78125 2.59375,-2.875 2.8125,-2.875 c 0.28125,0 0.515625,0.203125 0.515625,0.671875 z m 0,0"
                 id="id-1d0d791a-6a62-4be1-8475-349471c531c3" />
            </g>
          </g>
          <g
             style="fill:#008000;fill-opacity:1;stroke-width:0.861479;stroke-miterlimit:4;stroke-dasharray:none"
             id="id-01bbd173-11d8-4c9a-be4b-3cb354bf7be0">
            <g
               id="g2106"
               transform="translate(179.5,134.765)"
               style="fill:#008000;stroke-width:0.861479;stroke-miterlimit:4;stroke-dasharray:none">
              <path
                 style="fill:#008000;stroke:none;stroke-width:0.861479;stroke-miterlimit:4;stroke-dasharray:none"
                 d="M 1.578125,-7.484375 H 0.21875 v 0.40625 H 1.1875 V 2.09375 H 0.21875 V 2.5 h 1.359375 z m 0,0"
                 id="id-ab7cdd6e-0da5-4b82-a8cd-bd62ce42119b" />
            </g>
          </g>
        </g>
      </g>
    </g>
    <text
       id="text1007"
       y="96.367882"
       x="97.216278"
       style="font-size:10.5833px;line-height:1.25;font-family:Arial;-inkscape-font-specification:Arial;text-align:center;text-anchor:middle;fill:#000080;stroke:none;stroke-width:0.264583"
       xml:space="preserve"><tspan
         style="text-align:center;text-anchor:middle;fill:#000080;stroke:none;stroke-width:0.264583"
         y="96.367882"
         x="97.216278"
         id="tspan1005"
         sodipodi:role="line">(b) Data Preparation</tspan></text>
    <rect
       style="fill:none;fill-opacity:0.25;stroke:#000080;stroke-width:1.05398;stroke-miterlimit:4;stroke-dasharray:none;stroke-opacity:1"
       id="rect2174-3"
       width="98.946022"
       height="18.761051"
       x="47.696754"
       y="84.251099" />
    <text
       id="text1011"
       y="96.43248"
       x="226.94965"
       style="font-size:10.5833px;line-height:1.25;font-family:Arial;-inkscape-font-specification:Arial;text-align:center;text-anchor:middle;fill:#000080;stroke:none;stroke-width:0.264583"
       xml:space="preserve"><tspan
         style="text-align:center;text-anchor:middle;fill:#000080;stroke:none;stroke-width:0.264583"
         y="96.43248"
         x="226.94965"
         id="tspan1009"
         sodipodi:role="line">(c) Model Composition</tspan></text>
    <rect
       style="fill:none;fill-opacity:0.25;stroke:#000080;stroke-width:1.04899;stroke-miterlimit:4;stroke-dasharray:none;stroke-opacity:1"
       id="rect2174-6"
       width="108.95101"
       height="18.703575"
       x="172.42763"
       y="84.279839" />
    <text
       id="text1015"
       y="96.435059"
       x="346.70544"
       style="font-size:10.5833px;line-height:1.25;font-family:Arial;-inkscape-font-specification:Arial;text-align:center;text-anchor:middle;fill:#000080;stroke:none;stroke-width:0.264583"
       xml:space="preserve"><tspan
         style="text-align:center;text-anchor:middle;fill:#000080;stroke:none;stroke-width:0.264583"
         y="96.435059"
         x="346.70544"
         id="tspan1013"
         sodipodi:role="line">(d) Output</tspan></text>
    <rect
       style="fill:none;fill-opacity:0.25;stroke:#000080;stroke-width:1.00073;stroke-miterlimit:4;stroke-dasharray:none;stroke-opacity:1"
       id="rect2174-7"
       width="78.999275"
       height="18.880569"
       x="307.49002"
       y="84.191338" />
    <text
       id="text1003"
       y="96.373047"
       x="-17.852095"
       style="font-size:10.5833px;line-height:1.25;font-family:Arial;-inkscape-font-specification:Arial;text-align:center;text-anchor:middle;fill:#000080;stroke:none;stroke-width:0.264583"
       xml:space="preserve"><tspan
         style="text-align:center;text-anchor:middle;fill:#000080;stroke:none;stroke-width:0.264583"
         y="96.373047"
         x="-17.852093"
         id="tspan1001"
         sodipodi:role="line">(a) Input Query</tspan></text>
    <rect
       y="84.190971"
       x="-57.018856"
       height="18.881298"
       width="78.881294"
       id="rect2174"
       style="fill:none;fill-opacity:0.25;stroke:#000080;stroke-width:1;stroke-miterlimit:4;stroke-dasharray:none;stroke-opacity:1" />
    <path
       id="path2461"
       d="m 21.871432,93.637884 23.324255,-0.0089"
       style="fill:none;stroke:#000080;stroke-width:1;stroke-linecap:butt;stroke-linejoin:miter;stroke-miterlimit:4;stroke-dasharray:none;stroke-opacity:1;marker-end:url(#Arrow1Mend)" />
    <path
       style="fill:none;stroke:#000080;stroke-width:1;stroke-linecap:butt;stroke-linejoin:miter;stroke-miterlimit:4;stroke-dasharray:none;stroke-opacity:1;marker-end:url(#Arrow1Mend-5)"
       d="m 146.9153,93.637884 23.32425,-0.0089"
       id="path2461-5" />
    <path
       style="fill:none;stroke:#000080;stroke-width:1;stroke-linecap:butt;stroke-linejoin:miter;stroke-miterlimit:4;stroke-dasharray:none;stroke-opacity:1;marker-end:url(#Arrow1Mend-6)"
       d="m 281.8543,93.637884 23.32426,-0.0089"
       id="path2461-9" />
    <g
       transform="translate(5.1805616)"
       id="g5807">
      <text
         xml:space="preserve"
         style="font-size:10.5833px;line-height:1.25;font-family:Arial;-inkscape-font-specification:Arial;text-align:center;text-anchor:middle;fill:#008000;stroke-width:0.264583"
         x="221.68898"
         y="130.68698"
         id="text1573"><tspan
           sodipodi:role="line"
           id="tspan1571"
           x="221.68898"
           y="130.68698"
           style="text-align:center;text-anchor:middle;fill:#008000;stroke-width:0.264583">Each Point </tspan><tspan
           sodipodi:role="line"
           x="221.68898"
           y="143.91611"
           style="text-align:center;text-anchor:middle;fill:#008000;stroke-width:0.264583"
           id="tspan1589">Predictive Model</tspan></text>
      <rect
         style="fill:none;fill-opacity:0.25;stroke:#008000;stroke-width:1;stroke-miterlimit:4;stroke-dasharray:none;stroke-opacity:1"
         id="rect2900"
         width="98.926781"
         height="33.926788"
         x="172.25919"
         y="116.61229" />
    </g>
    <g
       transform="translate(5.1805768,0.29212646)"
       id="g5801">
      <text
         xml:space="preserve"
         style="font-size:10.5833px;line-height:1.25;font-family:Arial;-inkscape-font-specification:Arial;text-align:center;text-anchor:middle;fill:#008000;stroke-width:0.264583"
         x="221.52878"
         y="185.04617"
         id="text1577"><tspan
           sodipodi:role="line"
           x="221.52878"
           y="185.04617"
           style="text-align:center;text-anchor:middle;fill:#008000;stroke-width:0.264583"
           id="tspan1583">Representative</tspan><tspan
           sodipodi:role="line"
           x="221.52878"
           y="198.2753"
           style="text-align:center;text-anchor:middle;fill:#008000;stroke-width:0.264583"
           id="tspan1587">Models</tspan></text>
      <rect
         y="170.97148"
         x="172.25917"
         height="33.926788"
         width="98.926781"
         id="rect2900-1"
         style="fill:none;fill-opacity:0.25;stroke:#008000;stroke-width:1;stroke-miterlimit:4;stroke-dasharray:none;stroke-opacity:1" />
    </g>
    <g
       transform="translate(5.1805654,1.0633469e-5)"
       id="g5795">
      <text
         xml:space="preserve"
         style="font-size:10.5833px;line-height:1.25;font-family:Arial;-inkscape-font-specification:Arial;text-align:center;text-anchor:middle;fill:#008000;stroke-width:0.264583"
         x="221.52878"
         y="238.47624"
         id="text1593"><tspan
           sodipodi:role="line"
           id="tspan1591"
           x="221.52878"
           y="238.47624"
           style="text-align:center;text-anchor:middle;fill:#008000;stroke-width:0.264583">Classifier</tspan><tspan
           sodipodi:role="line"
           x="221.52878"
           y="251.70537"
           style="text-align:center;text-anchor:middle;fill:#008000;stroke-width:0.264583"
           id="tspan1595">Representative</tspan><tspan
           sodipodi:role="line"
           x="221.52878"
           y="264.93448"
           style="text-align:center;text-anchor:middle;fill:#008000;stroke-width:0.264583"
           id="tspan1597">Models</tspan></text>
      <rect
         style="fill:none;fill-opacity:0.25;stroke:#008000;stroke-width:1.13627;stroke-miterlimit:4;stroke-dasharray:none;stroke-opacity:1"
         id="rect2900-1-2"
         width="98.790512"
         height="43.863728"
         x="172.32732"
         y="225.98305" />
    </g>
    <rect
       y="121.16622"
       x="47.80545"
       height="48.801849"
       width="98.72863"
       id="rect2900-1-7"
       style="fill:none;fill-opacity:0.25;stroke:#008000;stroke-width:1.19815;stroke-miterlimit:4;stroke-dasharray:none;stroke-opacity:1" />
    <rect
       style="fill:none;fill-opacity:0.25;stroke:#ff0000;stroke-width:1.01737;stroke-miterlimit:4;stroke-dasharray:none;stroke-opacity:1"
       id="rect2900-1-2-0"
       width="78.982635"
       height="43.982632"
       x="307.49835"
       y="111.58437" />
    <g
       style="fill:#ff0000"
       transform="matrix(1.00005,0,0,1.3114396,343.20573,140.94807)"
       ns14:version="1.1.0"
       ns14:texconverter="pdflatex"
       ns14:pdfconverter="inkscape"
       ns14:text="$t_{f}$"
       ns14:preamble="/home/rocio/.config/inkscape/extensions/textext/default_packages.tex"
       ns14:scale="2.834798088316165"
       ns14:alignment="middle center"
       ns14:inkscapeversion="1.0"
       ns14:jacobian_sqrt="1.00005"
       id="g5694">
      <defs
         id="id-8b28300c-cbc3-409a-975a-ba78217aaa58">
        <g
           id="id-427e1dfe-b4ab-439e-a8cf-eeefcb06d3c4">
          <symbol
             id="id-54daaf8c-844c-4d0a-b075-73ac2e90b4e5"
             overflow="visible">
            <path
               id="id-a55fb694-0a0d-41b3-b278-df6dc2e07b45"
               d=""
               style="stroke:none" />
          </symbol>
          <symbol
             id="id-0a07ed80-48f4-46c5-9093-62f5c17ecaf2"
             overflow="visible">
            <path
               id="id-d2722356-32ea-41bd-a963-baff78915815"
               d="m 3.125,-1.421875 c 0,-0.109375 -0.078125,-0.109375 -0.109375,-0.109375 -0.09375,0 -0.109375,0.03125 -0.15625,0.140625 -0.421875,1.046875 -0.953125,1.28125 -1.296875,1.28125 -0.203125,0 -0.3125,-0.125 -0.3125,-0.453125 0,-0.25 0.03125,-0.3125 0.0625,-0.484375 l 0.734375,-2.9375 h 0.9375 c 0.203125,0 0.3125,0 0.3125,-0.203125 0,-0.109375 -0.109375,-0.109375 -0.28125,-0.109375 h -0.875 C 2.5,-5.71875 2.546875,-5.90625 2.546875,-5.96875 c 0,-0.171875 -0.125,-0.265625 -0.296875,-0.265625 -0.03125,0 -0.3125,0 -0.390625,0.359375 L 1.46875,-4.296875 h -0.9375 c -0.203125,0 -0.296875,0 -0.296875,0.1875 0,0.125 0.078125,0.125 0.28125,0.125 h 0.875 C 0.671875,-1.15625 0.625,-0.984375 0.625,-0.8125 0.625,-0.265625 1,0.109375 1.546875,0.109375 2.5625,0.109375 3.125,-1.34375 3.125,-1.421875 Z m 0,0"
               style="stroke:none" />
          </symbol>
          <symbol
             id="id-2dfcd4c3-d3ca-4090-911e-5c6544a57064"
             overflow="visible">
            <path
               id="id-3066d8d6-bd10-4317-87c1-89ba501a3316"
               d=""
               style="stroke:none" />
          </symbol>
          <symbol
             id="id-455b39c9-abfd-4feb-a3ff-afe2eee05a92"
             overflow="visible">
            <path
               id="id-3f0bc8b1-6e7b-4ca1-9604-067df11a239d"
               d="m 4.203125,-4.40625 c 0,-0.328125 -0.328125,-0.5 -0.6875,-0.5 -0.3125,0 -0.65625,0.171875 -0.84375,0.515625 C 2.53125,-4.125 2.484375,-3.8125 2.328125,-3 H 1.78125 c -0.140625,0 -0.234375,0 -0.234375,0.15625 0,0.09375 0.09375,0.09375 0.21875,0.09375 H 2.28125 L 1.671875,0.546875 C 1.640625,0.703125 1.515625,1.21875 1.1875,1.21875 c 0,0 -0.171875,0 -0.3125,-0.078125 0.28125,-0.09375 0.3125,-0.34375 0.3125,-0.375 C 1.1875,0.609375 1.0625,0.5 0.90625,0.5 c -0.1875,0 -0.390625,0.15625 -0.390625,0.421875 0,0.3125 0.328125,0.5 0.671875,0.5 0.4375,0 0.75,-0.453125 0.828125,-0.609375 0.25,-0.46875 0.421875,-1.328125 0.4375,-1.40625 L 2.84375,-2.75 H 3.515625 C 3.65625,-2.75 3.75,-2.75 3.75,-2.90625 3.75,-3 3.65625,-3 3.53125,-3 H 2.890625 c 0.15625,-0.890625 0.203125,-1.203125 0.265625,-1.40625 0.03125,-0.15625 0.1875,-0.296875 0.359375,-0.296875 0,0 0.1875,0 0.328125,0.078125 -0.296875,0.09375 -0.3125,0.34375 -0.3125,0.375 0,0.15625 0.125,0.265625 0.28125,0.265625 0.1875,0 0.390625,-0.15625 0.390625,-0.421875 z m 0,0"
               style="stroke:none" />
          </symbol>
        </g>
      </defs>
      <g
         style="fill:#ff0000"
         transform="translate(-148.946,-128.531)"
         id="id-13c25bdd-e96f-4787-a065-8f91161c4832">
        <g
           id="id-3e329e35-d6b4-4c52-bb3a-a818e80d9148"
           style="fill:#ff0000;fill-opacity:1">
          <g
             style="fill:#ff0000"
             transform="translate(148.712,134.765)"
             id="g5686">
            <path
               id="id-4fd5d49c-e4b7-4694-9749-abd925389665"
               d="m 3.125,-1.421875 c 0,-0.109375 -0.078125,-0.109375 -0.109375,-0.109375 -0.09375,0 -0.109375,0.03125 -0.15625,0.140625 -0.421875,1.046875 -0.953125,1.28125 -1.296875,1.28125 -0.203125,0 -0.3125,-0.125 -0.3125,-0.453125 0,-0.25 0.03125,-0.3125 0.0625,-0.484375 l 0.734375,-2.9375 h 0.9375 c 0.203125,0 0.3125,0 0.3125,-0.203125 0,-0.109375 -0.109375,-0.109375 -0.28125,-0.109375 h -0.875 C 2.5,-5.71875 2.546875,-5.90625 2.546875,-5.96875 c 0,-0.171875 -0.125,-0.265625 -0.296875,-0.265625 -0.03125,0 -0.3125,0 -0.390625,0.359375 L 1.46875,-4.296875 h -0.9375 c -0.203125,0 -0.296875,0 -0.296875,0.1875 0,0.125 0.078125,0.125 0.28125,0.125 h 0.875 C 0.671875,-1.15625 0.625,-0.984375 0.625,-0.8125 0.625,-0.265625 1,0.109375 1.546875,0.109375 2.5625,0.109375 3.125,-1.34375 3.125,-1.421875 Z m 0,0"
               style="fill:#ff0000;stroke:none" />
          </g>
        </g>
        <g
           id="id-994f56a9-a761-4324-b627-947d8b42ebad"
           style="fill:#ff0000;fill-opacity:1">
          <g
             style="fill:#ff0000"
             transform="translate(152.31,136.259)"
             id="g5690">
            <path
               id="id-0a799dcc-a119-4c2b-ac7a-dfafcc29c79c"
               d="m 4.203125,-4.40625 c 0,-0.328125 -0.328125,-0.5 -0.6875,-0.5 -0.3125,0 -0.65625,0.171875 -0.84375,0.515625 C 2.53125,-4.125 2.484375,-3.8125 2.328125,-3 H 1.78125 c -0.140625,0 -0.234375,0 -0.234375,0.15625 0,0.09375 0.09375,0.09375 0.21875,0.09375 H 2.28125 L 1.671875,0.546875 C 1.640625,0.703125 1.515625,1.21875 1.1875,1.21875 c 0,0 -0.171875,0 -0.3125,-0.078125 0.28125,-0.09375 0.3125,-0.34375 0.3125,-0.375 C 1.1875,0.609375 1.0625,0.5 0.90625,0.5 c -0.1875,0 -0.390625,0.15625 -0.390625,0.421875 0,0.3125 0.328125,0.5 0.671875,0.5 0.4375,0 0.75,-0.453125 0.828125,-0.609375 0.25,-0.46875 0.421875,-1.328125 0.4375,-1.40625 L 2.84375,-2.75 H 3.515625 C 3.65625,-2.75 3.75,-2.75 3.75,-2.90625 3.75,-3 3.65625,-3 3.53125,-3 H 2.890625 c 0.15625,-0.890625 0.203125,-1.203125 0.265625,-1.40625 0.03125,-0.15625 0.1875,-0.296875 0.359375,-0.296875 0,0 0.1875,0 0.328125,0.078125 -0.296875,0.09375 -0.3125,0.34375 -0.3125,0.375 0,0.15625 0.125,0.265625 0.28125,0.265625 0.1875,0 0.390625,-0.15625 0.390625,-0.421875 z m 0,0"
               style="fill:#ff0000;stroke:none" />
          </g>
        </g>
      </g>
    </g>
    <text
       id="text5811"
       y="163.93195"
       x="226.90572"
       style="font-size:10.5833px;line-height:1.25;font-family:Arial;-inkscape-font-specification:Arial;text-align:center;text-anchor:middle;stroke-width:0.264583"
       xml:space="preserve"><tspan
         style="text-align:center;text-anchor:middle;stroke-width:0.264583"
         y="163.93195"
         x="226.90572"
         id="tspan5809"
         sodipodi:role="line">&lt;OR&gt;</tspan></text>
    <text
       xml:space="preserve"
       style="font-size:10.5833px;line-height:1.25;font-family:Arial;-inkscape-font-specification:Arial;text-align:center;text-anchor:middle;stroke-width:0.264583"
       x="226.90572"
       y="219.74423"
       id="text5811-9"><tspan
         sodipodi:role="line"
         id="tspan5809-7"
         x="226.90572"
         y="219.74423"
         style="text-align:center;text-anchor:middle;stroke-width:0.264583">&lt;OR&gt;</tspan></text>
  </g>
</svg>
