<?xml version="1.0" encoding="UTF-8" standalone="no"?>
<svg
   xmlns:dc="http://purl.org/dc/elements/1.1/"
   xmlns:cc="http://creativecommons.org/ns#"
   xmlns:rdf="http://www.w3.org/1999/02/22-rdf-syntax-ns#"
   xmlns:svg="http://www.w3.org/2000/svg"
   xmlns="http://www.w3.org/2000/svg"
   xmlns:sodipodi="http://sodipodi.sourceforge.net/DTD/sodipodi-0.dtd"
   xmlns:inkscape="http://www.inkscape.org/namespaces/inkscape"
   id="export"
   class="canvas"
   preserveAspectRatio="xMidYMid meet"
   style="position: absolute; margin: 0px; -webkit-tap-highlight-color: rgba(0, 0, 0, 0);"
   width="205"
   height="1406"
   version="1.1"
   sodipodi:docname="scaled_model_min_error_5000.svg"
   inkscape:version="1.0 (4035a4fb49, 2020-05-01)">
  <metadata
     id="metadata1487">
    <rdf:RDF>
      <cc:Work
         rdf:about="">
        <dc:format>image/svg+xml</dc:format>
        <dc:type
           rdf:resource="http://purl.org/dc/dcmitype/StillImage" />
        <dc:title />
      </cc:Work>
    </rdf:RDF>
  </metadata>
  <defs
     id="defs1485">
    <inkscape:perspective
       sodipodi:type="inkscape:persp3d"
       inkscape:vp_x="0 : 703 : 1"
       inkscape:vp_y="0 : 1000 : 0"
       inkscape:vp_z="205 : 703 : 1"
       inkscape:persp3d-origin="102.5 : 468.66667 : 1"
       id="perspective3755" />
    <defs
       id="defs841">
      <marker
         id="arrowhead-vee"
         viewBox="0 0 10 10"
         refX="9"
         refY="5"
         markerUnits="strokeWidth"
         markerWidth="8"
         markerHeight="6"
         orient="auto"
         style="fill:#000000">
        <path
           d="M 0,0 10,5 0,10 4,5 Z"
           style="stroke-width:1"
           id="path835" />
      </marker>
      <marker
         id="arrowhead-vee-select"
         viewBox="0 0 10 10"
         refX="9"
         refY="5"
         markerUnits="strokeWidth"
         markerWidth="8"
         markerHeight="6"
         orient="auto"
         style="fill:#ee0000">
        <path
           d="M 0,0 10,5 0,10 4,5 Z"
           style="stroke-width:1"
           id="path838" />
      </marker>
    </defs>
  </defs>
  <sodipodi:namedview
     inkscape:document-rotation="0"
     pagecolor="#ffffff"
     bordercolor="#666666"
     borderopacity="1"
     objecttolerance="10"
     gridtolerance="10"
     guidetolerance="10"
     inkscape:pageopacity="0"
     inkscape:pageshadow="2"
     inkscape:window-width="1366"
     inkscape:window-height="717"
     id="namedview1483"
     showgrid="false"
     inkscape:zoom="2.0197303"
     inkscape:cx="43.474414"
     inkscape:cy="-139.30359"
     inkscape:window-x="0"
     inkscape:window-y="27"
     inkscape:window-maximized="1"
     inkscape:current-layer="export"
     showguides="false" />
  <path
     class="edge-path"
     d="m 57.287875,-123.70373 v 1.63876 c 0,1.63876 0,4.91629 0,8.19382 0,3.27752 0,6.55504 0,8.1938 v 1.63877"
     id="edge-time_distributed_input"
     style="fill:none;stroke:#000000;stroke-width:0.683948;stroke-miterlimit:4;stroke-dasharray:none;marker-end:url(#arrowhead-vee)" />
  <path
     class="edge-path"
     d="m 57.287875,105.34221 v 1.63221 c 0,1.63222 0,4.89666 0,8.1611 0,3.26442 0,6.52886 0,8.16108 v 1.63222"
     id="edge-time_distributed_1"
     style="fill:none;stroke:#000000;stroke-width:0.691174px;marker-end:url(#arrowhead-vee)" />
  <path
     class="edge-path"
     d="m 57.287875,186.30063 v 1.64262 c 0,1.64263 0,4.92789 0,8.21315 0,3.28525 0,6.57051 0,8.21314 v 1.64263"
     id="edge-time_distributed_2"
     style="fill:none;stroke:#000000;stroke-width:0.693375px;marker-end:url(#arrowhead-vee)" />
  <path
     class="edge-path"
     d="m 57.287875,266.03196 v 1.64262 c 0,1.64263 0,4.92789 0,8.21315 0,3.28525 0,6.57051 0,8.21314 v 1.64263"
     id="edge-time_distributed_3"
     style="fill:none;stroke:#000000;stroke-width:0.693375px;marker-end:url(#arrowhead-vee)" />
  <path
     class="edge-path"
     d="m 57.287875,329.19272 v 1.64262 c 0,1.64263 0,4.92789 0,8.21315 0,3.28525 0,6.57051 0,8.21314 v 1.64263"
     id="edge-time_distributed_4"
     style="fill:none;stroke:#000000;stroke-width:0.693375px;marker-end:url(#arrowhead-vee)" />
  <path
     class="edge-path"
     d="m 57.287875,389.33027 v 1.64262 c 0,1.64263 0,4.92789 0,8.21315 0,3.28525 0,6.57051 0,8.21314 v 1.64263"
     id="edge-batch_normalization"
     style="fill:none;stroke:#000000;stroke-width:0.693375px;marker-end:url(#arrowhead-vee)" />
  <path
     class="edge-path"
     d="m 57.287875,472.28108 v 1.64262 c 0,1.64263 0,4.92789 0,8.21315 0,3.28525 0,6.57051 0,8.21314 v 1.64263"
     id="edge-lstm"
     style="fill:none;stroke:#000000;stroke-width:0.693375px;marker-end:url(#arrowhead-vee)" />
  <path
     class="edge-path"
     d="m 57.287875,532.42619 v 1.64319 c 0,1.6432 0,4.92961 0,8.21595 0,3.28639 0,6.57278 0,8.21598 v 1.64319"
     id="edge-dropout_1"
     style="fill:none;stroke:#000000;stroke-width:0.685189px;marker-end:url(#arrowhead-vee)" />
  <path
     class="edge-path"
     d="m 57.287875,592.51647 v 1.64264 c 0,1.6426 0,4.92789 0,8.21313 0,3.28524 0,6.57053 0,8.21312 v 1.64265"
     id="edge-batch_normalization_1"
     style="fill:none;stroke:#000000;stroke-width:0.693375px;marker-end:url(#arrowhead-vee)" />
  <path
     class="edge-path"
     d="m 57.287875,664.91258 v 1.6426 c 0,1.6426 0,4.9279 0,8.2132 0,3.2852 0,6.5705 0,8.2131 v 1.6426"
     id="edge-dense_1"
     style="fill:none;stroke:#000000;stroke-width:0.693375px;marker-end:url(#arrowhead-vee)" />
  <g
     id="g3778"
     transform="translate(0.086977,-1.0646504)">
    <path
       id="path1004"
       style="fill:#eeeeee;stroke:#000000;stroke-width:0"
       d="M -15.916288,-102.09774 H 130.31808 a 5,5 0 0 1 5,5.000004 v 16 H -20.916288 v -16 a 5,5 0 0 1 5,-5.000004 z" />
    <text
       id="text1006"
       style="font-size:11px;font-family:'-apple-system', BlinkMacSystemFont, 'Segoe WPC', 'Segoe UI', Ubuntu, 'Droid Sans', sans-serif, 'PingFang SC';fill:#000000"
       y="-88.097733"
       x="-14.916288">TimeDistributed</text>
    <path
       id="path1012"
       style="fill:#ffffff;stroke:#000000;stroke-width:0"
       d="M -20.916288,-81.097736 H 135.31808 v 18 H -20.916288 Z" />
    <text
       id="text1018"
       style="font-weight:normal;font-size:9px;font-family:'-apple-system', BlinkMacSystemFont, 'Segoe WPC', 'Segoe UI', Ubuntu, 'Droid Sans', sans-serif, 'PingFang SC'"
       y="-69.097733"
       x="-14.916288"
       xml:space="preserve"><tspan
         id="tspan1014">BatchInputShape</tspan><tspan
         id="tspan1016"> = (null, null, SW, 1)</tspan></text>
    <line
       id="line1020"
       style="fill:none;stroke:#333333;stroke-width:1px"
       y2="-81.097733"
       y1="-81.097733"
       x2="135.31808"
       x1="-20.916288"
       class="node" />
    <path
       id="path1024"
       style="fill:#335588;stroke:#000000;stroke-width:0"
       d="M -20.916288,-63.097736 H 135.31808 v 21 H -20.916288 Z" />
    <text
       id="text1026"
       style="font-size:11px;font-family:'-apple-system', BlinkMacSystemFont, 'Segoe WPC', 'Segoe UI', Ubuntu, 'Droid Sans', sans-serif, 'PingFang SC';fill:#ffffff"
       y="-49.097736"
       x="-14.916288">Conv1D</text>
    <text
       id="text1038"
       style="font-weight:normal;font-size:9px;font-family:'-apple-system', BlinkMacSystemFont, 'Segoe WPC', 'Segoe UI', Ubuntu, 'Droid Sans', sans-serif, 'PingFang SC'"
       y="-30.097736"
       x="-14.916288"
       xml:space="preserve"><tspan
         id="tspan1034">Activation</tspan><tspan
         id="tspan1036"> = ReLU</tspan></text>
    <text
       id="text1044"
       style="font-weight:normal;font-size:9px;font-family:'-apple-system', BlinkMacSystemFont, 'Segoe WPC', 'Segoe UI', Ubuntu, 'Droid Sans', sans-serif, 'PingFang SC'"
       y="-18.097736"
       x="-14.916288"
       xml:space="preserve"><tspan
         id="tspan1040">Filters</tspan><tspan
         id="tspan1042"> = 64</tspan></text>
    <text
       id="text1056"
       style="font-weight:normal;font-size:9px;font-family:'-apple-system', BlinkMacSystemFont, 'Segoe WPC', 'Segoe UI', Ubuntu, 'Droid Sans', sans-serif, 'PingFang SC'"
       y="-6.0977364"
       x="-14.916288"
       xml:space="preserve"><tspan
         id="tspan1052">Kernel Size</tspan><tspan
         id="tspan1054"> = 3</tspan></text>
    <line
       id="line1058"
       style="fill:none;stroke:#333333;stroke-width:1px"
       y2="-42.097736"
       y1="-42.097736"
       x2="135.31808"
       x1="-20.916288"
       class="node" />
    <line
       class="node"
       x1="-20.916288"
       x2="135.31808"
       y1="-63.097736"
       y2="-63.097736"
       style="fill:none;stroke:#333333;stroke-width:1px"
       id="line1062" />
    <path
       class="node border"
       d="M -15.937269,-102.12015 H 130.33906 a 5.0014348,4.5604261 0 0 1 5.00144,4.560424 v 94.856864 a 5.0014348,4.5604261 0 0 1 -5.00144,4.560426 H -15.937269 a 5.0014348,4.5604261 0 0 1 -5.001435,-4.560426 v -94.856864 a 5.0014348,4.5604261 0 0 1 5.001435,-4.560424 z"
       style="fill:none;stroke:#333333;stroke-width:0.955169px"
       id="path1064" />
  </g>
  <g
     id="g3796"
     transform="translate(0.08697585,-55.008563)">
    <path
       id="path1071"
       style="fill:#eeeeee;stroke:#000000;stroke-width:0"
       d="M 9.3883987,76.902274 H 105.0134 a 5,5 0 0 1 5,5 v 16 H 4.3883987 v -16 a 5,5 0 0 1 5,-5 z" />
    <text
       id="text1073"
       style="font-size:11px;font-family:'-apple-system', BlinkMacSystemFont, 'Segoe WPC', 'Segoe UI', Ubuntu, 'Droid Sans', sans-serif, 'PingFang SC';fill:#000000"
       y="90.902267"
       x="10.388399">TimeDistributed</text>
    <path
       id="path1079"
       style="fill:#335588;stroke:#000000;stroke-width:0"
       d="M 4.3883987,97.902274 H 110.0134 V 118.90227 H 4.3883987 Z" />
    <text
       id="text1081"
       style="font-size:11px;font-family:'-apple-system', BlinkMacSystemFont, 'Segoe WPC', 'Segoe UI', Ubuntu, 'Droid Sans', sans-serif, 'PingFang SC';fill:#ffffff"
       y="111.90227"
       x="10.388399">Conv1D</text>
    <text
       id="text1093"
       style="font-weight:normal;font-size:9px;font-family:'-apple-system', BlinkMacSystemFont, 'Segoe WPC', 'Segoe UI', Ubuntu, 'Droid Sans', sans-serif, 'PingFang SC'"
       y="130.90227"
       x="10.388399"
       xml:space="preserve"><tspan
         id="tspan1089">Activation</tspan><tspan
         id="tspan1091"> = ReLU</tspan></text>
    <text
       id="text1099"
       style="font-weight:normal;font-size:9px;font-family:'-apple-system', BlinkMacSystemFont, 'Segoe WPC', 'Segoe UI', Ubuntu, 'Droid Sans', sans-serif, 'PingFang SC'"
       y="142.90227"
       x="10.388399"
       xml:space="preserve"><tspan
         id="tspan1095">Filters</tspan><tspan
         id="tspan1097"> = 64</tspan></text>
    <text
       id="text1111"
       style="font-weight:normal;font-size:9px;font-family:'-apple-system', BlinkMacSystemFont, 'Segoe WPC', 'Segoe UI', Ubuntu, 'Droid Sans', sans-serif, 'PingFang SC'"
       y="154.90227"
       x="10.388399"
       xml:space="preserve"><tspan
         id="tspan1107">Kernel Size</tspan><tspan
         id="tspan1109"> = 3</tspan></text>
    <line
       id="line1113"
       style="fill:none;stroke:#333333;stroke-width:1px"
       y2="118.90227"
       y1="118.90227"
       x2="110.0134"
       x1="4.3883986"
       class="node" />
    <line
       class="node"
       x1="4.3883986"
       x2="110.0134"
       y1="97.902267"
       y2="97.902267"
       style="fill:none;stroke:#333333;stroke-width:1px"
       id="line1117" />
    <path
       class="node border"
       d="M 9.3569111,76.867494 H 105.04489 a 5.0032928,4.3257365 0 0 1 5.00329,4.325736 v 74.40267 a 5.0032928,4.3257365 0 0 1 -5.00329,4.32573 H 9.3569111 A 5.0032928,4.3257365 0 0 1 4.3536183,155.5959 V 81.19323 a 5.0032928,4.3257365 0 0 1 5.0032928,-4.325736 z"
       style="fill:none;stroke:#333333;stroke-width:0.930439px"
       id="path1119" />
  </g>
  <g
     id="g3809"
     transform="translate(0.08697565,-88.059966)">
    <path
       id="path1126"
       style="fill:#eeeeee;stroke:#000000;stroke-width:0"
       d="M 9.3883987,213.90227 H 105.0134 a 5,5 0 0 1 5,5 v 16 H 4.3883987 v -16 a 5,5 0 0 1 5,-5 z" />
    <text
       id="text1128"
       style="font-size:11px;font-family:'-apple-system', BlinkMacSystemFont, 'Segoe WPC', 'Segoe UI', Ubuntu, 'Droid Sans', sans-serif, 'PingFang SC';fill:#000000"
       y="227.90227"
       x="10.388399">TimeDistributed</text>
    <path
       id="path1134"
       style="fill:#454770;stroke:#000000;stroke-width:0"
       d="M 4.3883987,234.90227 H 110.0134 v 21 H 4.3883987 Z" />
    <text
       id="text1136"
       style="font-size:11px;font-family:'-apple-system', BlinkMacSystemFont, 'Segoe WPC', 'Segoe UI', Ubuntu, 'Droid Sans', sans-serif, 'PingFang SC';fill:#ffffff"
       y="248.90227"
       x="10.388399">Dropout</text>
    <path
       id="path1142"
       style="fill:#ffffff;stroke:#000000;stroke-width:0"
       d="M 4.3883987,255.90227 H 110.0134 v 13 a 5,5 0 0 1 -5,5 H 9.3883987 a 5,5 0 0 1 -5,-5 z" />
    <text
       id="text1148"
       style="font-weight:normal;font-size:9px;font-family:'-apple-system', BlinkMacSystemFont, 'Segoe WPC', 'Segoe UI', Ubuntu, 'Droid Sans', sans-serif, 'PingFang SC'"
       y="267.90225"
       x="10.388399"
       xml:space="preserve"><tspan
         id="tspan1144">Rate</tspan><tspan
         id="tspan1146"> = 0.4</tspan></text>
    <line
       id="line1150"
       style="fill:none;stroke:#333333;stroke-width:1px"
       y2="255.90227"
       y1="255.90227"
       x2="110.0134"
       x1="4.3883986"
       class="node" />
    <line
       class="node"
       x1="4.3883986"
       x2="110.0134"
       y1="234.90227"
       y2="234.90227"
       style="fill:none;stroke:#333333;stroke-width:1px"
       id="line1154" />
    <path
       class="node border"
       d="M 9.3883987,213.90227 H 105.0134 a 5,5 0 0 1 5,5 v 50 a 5,5 0 0 1 -5,5 H 9.3883987 a 5,5 0 0 1 -5,-5 v -50 a 5,5 0 0 1 5,-5 z"
       style="fill:none;stroke:#333333;stroke-width:1px"
       id="path1156" />
  </g>
  <g
     id="g3821"
     transform="translate(0.0869754,-107.95631)">
    <path
       id="path1163"
       style="fill:#eeeeee;stroke:#000000;stroke-width:0"
       d="M 9.3883987,314.90227 H 105.0134 a 5,5 0 0 1 5,5 v 16 H 4.3883987 v -16 a 5,5 0 0 1 5,-5 z" />
    <text
       id="text1165"
       style="font-size:11px;font-family:'-apple-system', BlinkMacSystemFont, 'Segoe WPC', 'Segoe UI', Ubuntu, 'Droid Sans', sans-serif, 'PingFang SC';fill:#000000"
       y="328.90225"
       x="10.388399">TimeDistributed</text>
    <path
       id="path1171"
       style="fill:#335533;stroke:#000000;stroke-width:0"
       d="M 4.3883987,335.90227 H 110.0134 v 21 H 4.3883987 Z" />
    <text
       id="text1173"
       style="font-size:11px;font-family:'-apple-system', BlinkMacSystemFont, 'Segoe WPC', 'Segoe UI', Ubuntu, 'Droid Sans', sans-serif, 'PingFang SC';fill:#ffffff"
       y="349.90225"
       x="10.388399">MaxPooling1D</text>
    <text
       id="text1185"
       style="font-weight:normal;font-size:9px;font-family:'-apple-system', BlinkMacSystemFont, 'Segoe WPC', 'Segoe UI', Ubuntu, 'Droid Sans', sans-serif, 'PingFang SC'"
       y="368.90225"
       x="10.388399"
       xml:space="preserve"><tspan
         id="tspan1181">Pool Size</tspan><tspan
         id="tspan1183"> = 1</tspan></text>
    <line
       id="line1193"
       style="fill:none;stroke:#333333;stroke-width:1px"
       y2="356.90225"
       y1="356.90225"
       x2="110.0134"
       x1="4.3883986"
       class="node" />
    <line
       class="node"
       x1="4.3883986"
       x2="110.0134"
       y1="335.90225"
       y2="335.90225"
       style="fill:none;stroke:#333333;stroke-width:1px"
       id="line1197" />
    <path
       class="node border"
       d="M 9.3450431,314.85438 H 105.05676 a 5.0045339,4.0843741 0 0 1 5.00453,4.08437 v 50.64624 a 5.0045339,4.0843741 0 0 1 -5.00453,4.08438 H 9.3450431 a 5.0045339,4.0843741 0 0 1 -5.0045339,-4.08438 v -50.64624 a 5.0045339,4.0843741 0 0 1 5.0045339,-4.08437 z"
       style="fill:none;stroke:#333333;stroke-width:0.904221px"
       id="path1199" />
  </g>
  <g
     id="g3829"
     transform="translate(0.08697565,-141.21269)">
    <path
       id="path1206"
       style="fill:#eeeeee;stroke:#000000;stroke-width:0"
       d="M 9.3883987,427.90227 H 105.0134 a 5,5 0 0 1 5,5 v 16 H 4.3883987 v -16 a 5,5 0 0 1 5,-5 z" />
    <text
       id="text1208"
       style="font-size:11px;font-family:'-apple-system', BlinkMacSystemFont, 'Segoe WPC', 'Segoe UI', Ubuntu, 'Droid Sans', sans-serif, 'PingFang SC';fill:#000000"
       y="441.90225"
       x="10.388399">TimeDistributed</text>
    <path
       id="path1214"
       style="fill:#6c4f47;stroke:#000000;stroke-width:0"
       d="M 4.3883987,448.90227 H 110.0134 v 16 a 5,5 0 0 1 -5,5 H 9.3883987 a 5,5 0 0 1 -5,-5 z" />
    <text
       id="text1216"
       style="font-size:11px;font-family:'-apple-system', BlinkMacSystemFont, 'Segoe WPC', 'Segoe UI', Ubuntu, 'Droid Sans', sans-serif, 'PingFang SC';fill:#ffffff"
       y="462.90225"
       x="10.388399">Flatten</text>
    <line
       class="node"
       x1="4.3883986"
       x2="110.0134"
       y1="448.90225"
       y2="448.90225"
       style="fill:none;stroke:#333333;stroke-width:1px"
       id="line1222" />
    <path
       class="node border"
       d="M 9.3883987,427.90227 H 105.0134 a 5,5 0 0 1 5,5 v 32 a 5,5 0 0 1 -5,5 H 9.3883987 a 5,5 0 0 1 -5,-5 v -32 a 5,5 0 0 1 5,-5 z"
       style="fill:none;stroke:#333333;stroke-width:1px"
       id="path1224" />
  </g>
  <g
     id="g3839"
     transform="translate(0.08697417,-161.04456)">
    <path
       id="path1231"
       style="fill:#335544;stroke:#000000;stroke-width:0"
       d="M 4.8024617,510.90227 H 109.59934 a 5,5 0 0 1 5,5 v 16 H -0.19753834 v -16 a 5,5 0 0 1 5.00000004,-5 z" />
    <text
       id="text1233"
       style="font-size:11px;font-family:'-apple-system', BlinkMacSystemFont, 'Segoe WPC', 'Segoe UI', Ubuntu, 'Droid Sans', sans-serif, 'PingFang SC';fill:#ffffff"
       y="524.90228"
       x="5.8024611">BatchNormalization</text>
    <path
       id="path1239"
       style="fill:#ffffff;stroke:#000000;stroke-width:0"
       d="M -0.19753834,531.90227 H 114.59934 v 13 a 5,5 0 0 1 -5,5 H 4.8024617 a 5,5 0 0 1 -5.00000004,-5 z" />
    <text
       id="text1245"
       style="font-weight:normal;font-size:9px;font-family:'-apple-system', BlinkMacSystemFont, 'Segoe WPC', 'Segoe UI', Ubuntu, 'Droid Sans', sans-serif, 'PingFang SC'"
       y="543.90228"
       x="5.8024611"
       xml:space="preserve"><tspan
         id="tspan1241">Axis</tspan><tspan
         id="tspan1243"> = 2</tspan></text>
    <line
       id="line1247"
       style="fill:none;stroke:#333333;stroke-width:1px"
       y2="531.90228"
       y1="531.90228"
       x2="114.59935"
       x1="-0.19753872"
       class="node" />
    <path
       class="node border"
       d="M 4.8024617,510.90227 H 109.59934 a 5,5 0 0 1 5,5 v 29 a 5,5 0 0 1 -5,5 H 4.8024617 a 5,5 0 0 1 -5.00000004,-5 v -29 a 5,5 0 0 1 5.00000004,-5 z"
       style="fill:none;stroke:#333333;stroke-width:1px"
       id="path1251" />
  </g>
  <g
     id="g3854"
     transform="translate(0.0869755,-180.97882)">
    <path
       id="path1258"
       style="fill:#335588;stroke:#000000;stroke-width:0"
       d="M -5.1741013,590.90227 H 119.5759 a 5,5 0 0 1 5,5 v 16 H -10.174101 v -16 a 5,5 0 0 1 4.9999997,-5 z" />
    <text
       id="text1260"
       style="font-size:11px;font-family:'-apple-system', BlinkMacSystemFont, 'Segoe WPC', 'Segoe UI', Ubuntu, 'Droid Sans', sans-serif, 'PingFang SC';fill:#ffffff"
       y="604.90228"
       x="-4.1741014">LSTM</text>
    <text
       id="text1272"
       style="font-weight:normal;font-size:9px;font-family:'-apple-system', BlinkMacSystemFont, 'Segoe WPC', 'Segoe UI', Ubuntu, 'Droid Sans', sans-serif, 'PingFang SC'"
       y="623.90228"
       x="-4.1741014"
       xml:space="preserve"><tspan
         id="tspan1268">Implementation</tspan><tspan
         id="tspan1270"> = 2</tspan></text>
    <text
       id="text1278"
       style="font-weight:normal;font-size:9px;font-family:'-apple-system', BlinkMacSystemFont, 'Segoe WPC', 'Segoe UI', Ubuntu, 'Droid Sans', sans-serif, 'PingFang SC'"
       y="635.90228"
       x="-4.1741014"
       xml:space="preserve"><tspan
         id="tspan1274">Recurrent Activation</tspan><tspan
         id="tspan1276"> = Sigmoid</tspan></text>
    <text
       id="text1290"
       style="font-weight:normal;font-size:9px;font-family:'-apple-system', BlinkMacSystemFont, 'Segoe WPC', 'Segoe UI', Ubuntu, 'Droid Sans', sans-serif, 'PingFang SC'"
       y="647.90228"
       x="-4.1741014"
       xml:space="preserve"><tspan
         id="tspan1286">Units</tspan><tspan
         id="tspan1288"> = 1024</tspan></text>
    <line
       id="line1292"
       style="fill:none;stroke:#333333;stroke-width:1px"
       y2="611.90228"
       y1="611.90228"
       x2="124.5759"
       x1="-10.174101"
       class="node" />
    <path
       class="node border"
       d="M -5.2161508,590.85685 H 119.61795 a 5.0033707,4.1300719 0 0 1 5.00337,4.13007 v 53.69094 a 5.0033707,4.1300719 0 0 1 -5.00337,4.13007 H -5.2161508 a 5.0033707,4.1300719 0 0 1 -5.0033702,-4.13007 v -53.69094 a 5.0033707,4.1300719 0 0 1 5.0033702,-4.13007 z"
       style="fill:none;stroke:#333333;stroke-width:0.90916px"
       id="path1296" />
  </g>
  <g
     id="g3915"
     transform="translate(0.08697565,-213.977)">
    <path
       id="path1303"
       style="fill:#454770;stroke:#000000;stroke-width:0"
       d="M 12.200899,706.90227 H 102.2009 a 5,5 0 0 1 5,5 v 16 H 7.2008987 v -16 a 5,5 0 0 1 5.0000003,-5 z" />
    <text
       id="text1305"
       style="font-size:11px;font-family:'-apple-system', BlinkMacSystemFont, 'Segoe WPC', 'Segoe UI', Ubuntu, 'Droid Sans', sans-serif, 'PingFang SC';fill:#ffffff"
       y="720.90228"
       x="13.200899">Dropout</text>
    <path
       id="path1311"
       style="fill:#ffffff;stroke:#000000;stroke-width:0"
       d="M 7.2008987,727.90227 H 107.2009 v 13 a 5,5 0 0 1 -5,5 H 12.200899 a 5,5 0 0 1 -5.0000003,-5 z" />
    <text
       id="text1317"
       style="font-weight:normal;font-size:9px;font-family:'-apple-system', BlinkMacSystemFont, 'Segoe WPC', 'Segoe UI', Ubuntu, 'Droid Sans', sans-serif, 'PingFang SC'"
       y="739.90228"
       x="13.200899"
       xml:space="preserve"><tspan
         id="tspan1313">Rate</tspan><tspan
         id="tspan1315"> = 0.4</tspan></text>
    <line
       id="line1319"
       style="fill:none;stroke:#333333;stroke-width:1px"
       y2="727.90228"
       y1="727.90228"
       x2="107.2009"
       x1="7.2008986"
       class="node" />
    <path
       class="node border"
       d="M 12.200899,706.90227 H 102.2009 a 5,5 0 0 1 5,5 v 29 a 5,5 0 0 1 -5,5 H 12.200899 a 5,5 0 0 1 -5.0000003,-5 v -29 a 5,5 0 0 1 5.0000003,-5 z"
       style="fill:none;stroke:#333333;stroke-width:1px"
       id="path1323" />
  </g>
  <g
     id="g3905"
     transform="translate(0.08697565,-234.89595)">
    <path
       id="path1330"
       style="fill:#335544;stroke:#000000;stroke-width:0"
       d="M -0.48660134,787.90222 H 114.8884 a 5,5 0 0 1 5,5 v 16 H -5.4866013 v -16 a 5,5 0 0 1 4.99999996,-5 z" />
    <text
       id="text1332"
       style="font-size:11px;font-family:'-apple-system', BlinkMacSystemFont, 'Segoe WPC', 'Segoe UI', Ubuntu, 'Droid Sans', sans-serif, 'PingFang SC';fill:#ffffff"
       y="801.90228"
       x="0.51339877">BatchNormalization</text>
    <path
       id="path1338"
       style="fill:#ffffff;stroke:#000000;stroke-width:0"
       d="M -5.4866013,808.90222 H 119.8884 v 13 a 5,5 0 0 1 -5,5 H -0.48660134 a 5,5 0 0 1 -4.99999996,-5 z" />
    <text
       id="text1344"
       style="font-weight:normal;font-size:9px;font-family:'-apple-system', BlinkMacSystemFont, 'Segoe WPC', 'Segoe UI', Ubuntu, 'Droid Sans', sans-serif, 'PingFang SC'"
       y="820.90228"
       x="0.51339877"
       xml:space="preserve"><tspan
         id="tspan1340">Axis</tspan><tspan
         id="tspan1342"> = 1</tspan></text>
    <line
       id="line1346"
       style="fill:none;stroke:#333333;stroke-width:1px"
       y2="808.90228"
       y1="808.90228"
       x2="119.8884"
       x1="-5.4866014"
       class="node" />
    <path
       class="node border"
       d="M -0.48660134,787.90222 H 114.8884 a 5,5 0 0 1 5,5 v 29 a 5,5 0 0 1 -5,5 H -0.48660134 a 5,5 0 0 1 -4.99999996,-5 v -29 a 5,5 0 0 1 4.99999996,-5 z"
       style="fill:none;stroke:#333333;stroke-width:1px"
       id="path1350" />
  </g>
  <g
     id="g3872"
     transform="translate(0.08697565,-426.45736)">
    <path
       id="path1417"
       style="fill:#335588;stroke:#000000;stroke-width:0"
       d="M 12.200899,1039.9022 H 102.2009 a 5,5 0 0 1 5,5 v 16 H 7.2008987 v -16 a 5,5 0 0 1 5.0000003,-5 z" />
    <text
       id="text1419"
       style="font-size:11px;font-family:'-apple-system', BlinkMacSystemFont, 'Segoe WPC', 'Segoe UI', Ubuntu, 'Droid Sans', sans-serif, 'PingFang SC';fill:#ffffff"
       y="1053.9022"
       x="13.200899">Dense</text>
    <path
       id="path1425"
       style="fill:#ffffff;stroke:#000000;stroke-width:0"
       d="M 7.2008987,1060.9022 H 107.2009 v 25 a 5,5 0 0 1 -5,5 H 12.200899 a 5,5 0 0 1 -5.0000003,-5 z" />
    <text
       id="text1431"
       style="font-weight:normal;font-size:9px;font-family:'-apple-system', BlinkMacSystemFont, 'Segoe WPC', 'Segoe UI', Ubuntu, 'Droid Sans', sans-serif, 'PingFang SC'"
       y="1072.9022"
       x="13.200899"
       xml:space="preserve"><tspan
         id="tspan1427">Activation</tspan><tspan
         id="tspan1429"> = Softmax</tspan></text>
    <text
       id="text1437"
       style="font-weight:normal;font-size:9px;font-family:'-apple-system', BlinkMacSystemFont, 'Segoe WPC', 'Segoe UI', Ubuntu, 'Droid Sans', sans-serif, 'PingFang SC'"
       y="1084.9022"
       x="13.200899"
       xml:space="preserve"><tspan
         id="tspan1433">Units</tspan><tspan
         id="tspan1435"> = number_labels</tspan></text>
    <line
       id="line1439"
       style="fill:none;stroke:#333333;stroke-width:1px"
       y2="1060.9022"
       y1="1060.9022"
       x2="107.2009"
       x1="7.2008986"
       class="node" />
    <path
       class="node border"
       d="M 12.200899,1039.9022 H 102.2009 a 5,5 0 0 1 5,5 v 41 a 5,5 0 0 1 -5,5 H 12.200899 a 5,5 0 0 1 -5.0000003,-5 v -41 a 5,5 0 0 1 5.0000003,-5 z"
       style="fill:none;stroke:#333333;stroke-width:1px"
       id="path1443" />
  </g>
  <g
     id="g3920">
    <path
       id="path1450"
       style="fill:#eeeeee;stroke:#000000;stroke-width:0"
       d="m 42.162872,-144.15479 h 30.250005 a 5,5 0 0 1 5,5 v 11 a 5,5 0 0 1 -5,5 H 42.162872 a 5,5 0 0 1 -5,-5 v -11 a 5,5 0 0 1 5,-5 z" />
    <text
       id="text1452"
       style="font-size:11px;font-family:'-apple-system', BlinkMacSystemFont, 'Segoe WPC', 'Segoe UI', Ubuntu, 'Droid Sans', sans-serif, 'PingFang SC'"
       y="-130.15479"
       x="43.72855">Input</text>
    <path
       class="node border"
       d="m 42.162872,-144.15479 h 30.250006 a 5,5 0 0 1 5,5 v 11 a 5,5 0 0 1 -5,5 H 42.162872 a 5,5 0 0 1 -5,-5 v -11 a 5,5 0 0 1 5,-5 z"
       style="fill:none;stroke:#333333;stroke-width:1px"
       id="path1458" />
  </g>
  <g
     id="g3859"
     transform="translate(0.086975,-446.32588)">
    <path
       id="path1466"
       style="fill:#eeeeee;stroke:#000000;stroke-width:0"
       d="m 35.075899,1131.9022 h 44.250002 a 5,5 0 0 1 5,5 v 11 a 5,5 0 0 1 -5,5 H 35.075899 a 5,5 0 0 1 -5,-5 v -11 a 5,5 0 0 1 5,-5 z" />
    <text
       id="text1468"
       style="font-size:11px;font-family:'-apple-system', BlinkMacSystemFont, 'Segoe WPC', 'Segoe UI', Ubuntu, 'Droid Sans', sans-serif, 'PingFang SC';text-align:center;text-anchor:middle"
       y="1145.9022"
       x="56.943085">Dense</text>
    <path
       class="node border"
       d="m 35.075899,1131.9022 h 44.250002 a 5,5 0 0 1 5,5 v 11 a 5,5 0 0 1 -5,5 H 35.075899 a 5,5 0 0 1 -5,-5 v -11 a 5,5 0 0 1 5,-5 z"
       style="fill:none;stroke:#333333;stroke-width:1px"
       id="path1472" />
  </g>
  <path
     class="edge-path"
     d="m 57.287875,1.2381619 v 1.642625 c 0,1.64263 0,4.927885 0,8.2131441 0,3.285255 0,6.57051 0,8.21314 V 20.9497"
     id="edge-time_distributed"
     style="fill:none;stroke:#000000;stroke-width:0.693375px;marker-end:url(#arrowhead-vee)" />
</svg>
